<svg width="227" height="188" viewBox="0 0 227 188" fill="none" xmlns="http://www.w3.org/2000/svg">
<g id="Objects" clip-path="url(#clip0_1_116)">
<path id="Vector" d="M73.428 39.1215C73.1773 39.305 72.5946 39.3601 72.3722 39.1977C72.0268 38.9503 71.65 38.4438 71.6546 38.0631C71.6743 37.2724 71.9371 36.5033 72.1261 35.5918C70.2499 35.486 68.6355 35.6796 67.0147 35.8962C65.4929 36.1079 63.9603 36.3214 62.4229 36.431C55.7355 36.8732 49.1968 37.8202 43.1497 40.687C41.5274 41.46 39.7792 42 38.1048 42.6823C36.8705 43.1837 35.619 43.6823 34.4454 44.2896C31.5748 45.7645 29.5355 47.8766 28.1029 50.4529L26.5714 49.5978C27.1831 48.4752 27.7948 47.3526 28.4389 46.2523C29.5651 44.3421 31.2057 42.9328 33.16 41.8861C34.3291 41.2576 35.5112 40.6379 36.726 40.0956C38.9903 39.0982 41.3306 38.2537 43.5515 37.1807C48.6157 34.7418 54.1334 33.959 59.7014 33.3389C63.7172 32.8912 67.7638 32.5654 71.7906 32.171C72.0572 32.1447 72.3015 31.9567 72.6277 31.8161C72.5766 31.0589 72.4653 30.3059 72.5003 29.5624C72.5292 28.8969 73.174 28.3637 73.8297 28.2858C74.5111 28.1982 74.9303 28.5878 75.2599 29.1075C75.4616 29.4385 75.6827 29.7829 75.7684 30.1436C76.2012 31.9408 76.3565 33.7385 75.9913 35.5429C75.6744 37.1247 74.6861 38.2253 73.428 39.1215Z" fill="black"/>
<path id="Vector_2" d="M113.648 109.973C114.273 110.175 114.695 110.393 115.117 110.419C116.083 110.473 117.061 110.343 118.013 110.46C118.394 110.504 118.863 110.946 119.062 111.321C119.319 111.809 118.942 112.216 118.507 112.473C117.49 113.088 116.327 113.209 115.163 113.083C112.023 112.745 109.088 111.681 106.39 109.967C106.071 109.765 105.794 109.446 105.595 109.126C105.256 108.591 105.195 107.945 105.677 107.565C105.979 107.335 106.582 107.321 106.997 107.424C107.45 107.544 107.826 107.941 108.257 108.174C109.193 108.674 110.142 109.154 111.229 109.712C112.057 108.4 112.795 107.219 113.542 106.052C116.846 100.873 119.341 95.3013 121.269 89.457C121.479 88.834 121.657 88.1887 121.789 87.5397C122.404 84.4727 121.193 81.8646 118.364 80.1884C117.689 79.7958 116.965 79.4883 116.249 79.1684C109.825 76.3469 105.865 71.2952 103.131 65.16C102.265 63.2287 102.266 61.2462 102.77 59.2543C103.913 54.7422 106.1 50.8771 109.647 47.8397C110.213 47.3522 110.785 46.8693 111.511 46.2459C111.044 45.9244 110.703 45.5608 110.298 45.4277C105.82 43.9396 101.268 42.9756 96.5612 42.8186C89.7371 42.6 83.0131 43.0261 76.3904 44.372C74.7917 44.6952 73.1688 44.9287 71.5547 45.1772C63.3486 46.464 55.4004 48.5682 47.6644 51.3763C46.6832 51.7323 45.7304 52.1719 44.7949 52.6418C43.0806 53.5067 42.1397 55.0512 41.5741 56.7722C40.786 59.1897 42.0974 61.611 44.6275 62.5698C45.7244 62.9881 46.8597 63.3231 48.0051 63.5464C52.8022 64.46 57.5809 65.1507 62.447 64.4121C68.6587 63.4682 74.6783 61.9715 80.5684 59.9559C83.2805 59.0296 86.0056 58.1398 88.7701 57.3593C91.8696 56.4808 94.8529 58.1817 95.828 61.3124C96.1165 62.2241 96.201 63.1963 96.3735 64.1377C96.6348 65.643 96.2735 66.9291 95.3244 68.1115C93.4924 70.3941 91.4529 72.4787 89.1302 74.2675C82.6913 79.2128 75.6182 82.9715 67.4202 84.5653C66.9603 84.6503 66.5179 84.7931 66.1054 84.8924C66.0105 85.6952 66.5915 85.7394 66.9774 85.9141C67.6866 86.2296 68.4769 86.3998 69.1071 86.8161C69.42 87.0136 69.5995 87.64 69.5801 88.0562C69.5726 88.2886 69.0688 88.6175 68.7442 88.6586C68.1897 88.7423 67.5766 88.7308 67.0295 88.582C64.839 88.0036 62.7357 87.2296 61.086 85.5345C60.5476 84.9713 59.8785 84.5282 59.2887 84.0118C58.7507 83.5312 58.3733 82.9145 58.5312 82.2283C58.6238 81.817 58.9313 81.371 59.2894 81.1427C59.521 81.0009 60.083 81.1142 60.3507 81.308C61.0523 81.8284 61.6664 82.462 62.4659 83.187C63.989 82.7933 65.5508 82.399 67.1017 81.9788C68.6719 81.5446 70.2661 81.1726 71.7862 80.6032C78.3731 78.1451 84.2771 74.613 89.3922 69.8971C90.497 68.8769 91.5002 67.7409 92.4537 66.5798C93.6873 65.0818 93.2297 61.7688 91.6085 60.6143C91.1962 60.3117 90.4686 60.2029 89.9766 60.3206C88.1248 60.7891 86.3015 61.3687 84.4695 61.9331C80.3609 63.1941 76.305 64.6559 72.1265 65.6859C68.3239 66.6278 64.3923 67.1335 60.5043 67.7698C59.4684 67.9419 58.3779 67.9576 57.317 67.8749C53.0564 67.5414 48.8315 67.0589 44.6527 65.8863C39.8083 64.5288 36.2597 59.5047 39.2921 53.8186C40.2446 52.0355 41.5667 50.5893 43.4401 49.7153C44.5582 49.1886 45.6827 48.6663 46.8529 48.2579C52.6291 46.2551 58.4532 44.3768 64.5199 43.2689C71.8954 41.912 79.2025 40.2248 86.7369 39.6903C94.9766 39.1031 103.144 39.4801 111.232 42.1607C116.519 43.915 120.939 46.7891 124.636 50.8643C126.022 52.3869 127.28 54.0128 128.609 55.5778C129.113 56.1631 129.645 56.7218 130.471 57.6297C131.611 55.976 132.461 54.6334 133.426 53.3712C134.388 52.1152 135.451 50.9475 136.58 49.615C135.98 49.1279 135.417 48.7669 135.001 48.2886C134.798 48.057 134.733 47.5278 134.852 47.2443C134.971 46.9608 135.365 46.6661 135.683 46.6205C136.143 46.563 136.664 46.6389 137.11 46.8095C138.526 47.3197 139.703 48.2317 140.677 49.3417C141.01 49.7177 140.996 50.3752 141.176 51.0291C140.66 51.1121 140.278 51.2782 139.946 51.2048C139.194 51.0339 138.647 51.2045 138.127 51.7232C135.173 54.6762 132.677 57.9632 131.127 61.8745C129.553 65.8612 129.488 70.0292 130.571 74.2217C130.924 75.5802 131.669 76.9252 132.501 78.102C134.227 80.5447 136.234 82.6504 138.519 84.381L137.157 86.1474C134.651 84.2817 132.557 81.9973 130.645 79.5458C128.976 77.4079 128.026 74.989 127.716 72.3626C127.336 69.1032 127.333 65.8658 128.268 62.7362C128.63 61.5327 128.44 60.5885 127.549 59.5809C125.667 57.4607 123.958 55.1858 122.065 53.0673C120.313 51.0913 118.343 49.3212 115.993 47.9754C110.232 50.4273 107.181 54.9214 105.709 60.687C105.441 61.7268 105.455 62.7873 105.905 63.7832C106.54 65.1899 107.152 66.6444 108.021 67.9199C109.241 69.6841 110.568 71.4035 112.073 72.9346C113.154 74.0273 114.558 74.8312 115.883 75.6534C116.804 76.2156 117.83 76.5848 118.811 77.0328C123.651 79.228 126.022 83.687 124.687 88.6154C123.403 93.3594 121.65 97.9532 119.036 102.118C117.39 104.74 115.54 107.229 113.648 109.973Z" fill="black"/>
<path id="Vector_3" d="M185.207 94.0312C188.25 92.9031 191.099 91.8337 193.961 90.8007C197.134 89.6625 200.451 89.1347 203.857 89.0438C208.978 88.9196 213.874 89.8833 218.577 92.1942C222.26 94.0028 224.608 96.7915 225.907 100.548C227.839 106.129 227.191 111.294 224.094 116.104C222.05 119.29 219.685 122.193 216.737 124.611C213.766 127.049 210.402 128.713 206.512 129.367C202.138 130.097 197.744 130.65 193.265 130.577C184.908 130.462 177.14 128.204 170.044 123.502C167.154 121.583 164.564 119.367 162.288 116.765C158.918 112.924 155.68 109 153.437 104.411C152.716 102.935 152.084 101.412 151.427 99.8989C150.881 98.6541 150.35 97.4014 149.825 96.1532C149.235 94.7502 148.192 93.8112 146.916 92.9591C143.724 90.8402 140.583 88.6471 137.481 86.3982C137.371 86.3222 137.259 86.2357 137.157 86.1474L138.519 84.3811C140.693 86.0358 143.132 87.3616 145.835 88.3202C146.83 88.6777 147.919 88.8164 148.965 88.8795C149.578 88.9186 150.192 88.6106 150.757 88.4702C150.736 87.2676 149.756 87.5243 149.277 87.1388C148.877 86.8176 148.519 86.5063 148.567 85.9643C148.631 85.2768 149.126 85.0154 149.739 84.9444C152.57 84.6487 155.552 86.3664 156.593 88.9579C156.743 89.3357 156.673 89.9912 156.421 90.2466C156.187 90.4878 155.544 90.4921 155.137 90.3759C154.612 90.2236 154.139 89.8426 153.61 89.5422C152.636 90.5523 152.642 91.6528 152.904 92.8111C154.228 98.705 156.478 104.241 160.254 109.129C161.923 111.295 163.678 113.419 165.543 115.426C170.277 120.519 176.094 123.79 182.738 125.739C188.804 127.528 194.848 127.465 200.917 126.797C202.454 126.633 203.965 126.34 205.491 126.122C208.311 125.718 210.853 124.693 213.107 123.058C217.312 120.008 220.539 116.147 222.636 111.388C224.363 107.47 223.659 103.585 221.941 99.7316C220.981 97.5896 219.226 96.2144 217.179 95.1229C213.075 92.9415 208.71 92.0245 204.191 92.1895C201.598 92.2927 198.993 92.6346 196.463 93.157C193.459 93.7723 190.534 94.6888 187.576 95.5004C187.123 95.6174 186.703 95.8392 186.235 96.0191C185.961 97.2195 186.626 98.0983 187.241 98.952C187.77 99.682 188.293 100.363 187.898 101.379C186.808 101.77 185.813 101.495 185.017 100.653C182.085 97.5621 181.103 93.9974 182.094 90.0109C182.174 89.6731 182.43 89.274 182.726 89.1217C183.115 88.9326 183.652 88.8462 184.063 88.9562C184.333 89.0231 184.627 89.5098 184.683 89.8313C184.796 90.4849 184.72 91.1635 184.796 91.8285C184.879 92.553 185.055 93.2682 185.207 94.0312Z" fill="black"/>
<path id="Vector_4" d="M208.781 104.073C208.987 103.941 209.483 104.192 209.832 104.323C209.996 104.39 210.158 104.557 210.254 104.723C211.416 106.695 212.064 108.804 212.028 111.046C212.018 112.099 211.599 112.998 210.352 113.573C209.967 112.44 209.647 111.506 209.339 110.608C208.993 110.68 208.788 110.686 208.628 110.766C203.568 113.227 198.152 114.18 192.426 114.116C185.981 114.04 179.926 112.304 174.089 109.586C171.502 108.378 169.07 106.792 167.119 104.689C163.198 100.468 162.244 95.5055 163.401 90.1983C163.951 87.6812 165.188 85.4449 166.703 83.3731C167.113 82.806 167.661 82.2608 167.548 81.2602C166.651 81.2448 165.902 81.2495 165.147 81.2223C159.087 80.991 153.441 79.4374 148.443 75.6708C145.314 73.3215 143.258 70.3316 142.396 66.621C141.138 61.1844 142.465 56.351 145.942 52.2785C150.574 46.8638 156.419 43.1264 163.517 41.3406C164.445 41.1032 165.377 40.8872 166.301 40.6285C172.019 39.0426 177.864 38.7964 183.828 39.5553C184.986 39.7049 186.151 39.8316 187.31 39.8268C189.362 39.8162 191.368 40.0938 193.365 40.6482C194.485 40.9637 195.667 41.0655 196.816 41.2551C197.236 41.3253 197.575 41.2486 197.689 40.6412C194.095 36.4999 189.772 33.2083 184.637 31.0109C178.248 28.2774 171.833 27.7287 165.335 29.8366C161.609 31.0415 157.824 32.0963 154.083 33.2542C153.408 33.4562 152.615 33.5398 152.038 34.2383C152.763 34.6834 153.362 34.978 153.874 35.3858C154.403 35.7963 154.285 36.5918 153.7 36.7739C153.252 36.9121 152.764 37.1061 152.31 37.058C148.49 36.6261 145.478 34.8417 143.384 31.5607C143.291 31.405 143.184 31.1853 143.207 31.0274C143.291 30.6285 143.321 30.1005 143.554 29.8593C143.571 29.8345 143.601 29.8187 143.62 29.8046C143.918 29.6079 144.592 29.6428 144.935 29.852C145.416 30.138 145.75 30.6791 146.146 31.1165C146.583 31.5914 147.015 32.0725 147.567 32.6721C153.292 28.2216 160.033 26.4821 167.058 25.2586C167.376 22.0137 165.872 19.4966 164.042 17.0651C162.696 17.0779 161.631 17.5135 160.582 17.9411C158.551 18.7523 156.527 19.5955 154.52 20.4689C149.92 22.4696 146.135 25.5344 142.611 28.9261C142.258 29.2582 141.911 29.5948 141.567 29.9421C140.843 30.6587 140.254 31.5684 139.805 32.4832C139.356 33.398 139.027 34.4144 138.882 35.429C138.585 37.4813 139.565 38.6783 141.724 39.0524C142.387 39.1715 143.078 39.1266 143.751 39.2165C144.864 39.3624 145.09 39.7281 145.076 41.2172C144.928 41.3346 144.802 41.476 144.643 41.5676C142.608 42.7595 140.342 43.0798 137.982 43.0518C135.564 43.0112 133.3 43.5516 131.009 44.4486C131.382 45.0989 131.735 45.5708 131.942 46.0882C132.321 47.035 131.626 47.8076 130.593 47.6159C130.218 47.5495 129.805 47.4563 129.49 47.2481C127.511 45.9474 126.159 42.8772 126.604 40.6525C126.69 40.2092 126.92 39.7647 127.196 39.4065C127.564 38.9289 128.141 38.7423 128.747 38.9313C129.337 39.1282 129.776 39.5588 129.809 40.2032C129.84 40.837 129.79 41.4784 129.766 42.2477C132.464 41.687 134.989 41.1708 137.501 40.6457C137.598 40.6301 137.699 40.5808 137.752 40.5172C137.806 40.4535 137.801 40.3497 137.858 40.1147C135.378 37.226 135.952 34.1216 137.367 31.1131C137.999 29.7669 138.892 28.4724 139.949 27.4378C144.074 23.4098 148.446 19.6891 153.911 17.417C155.935 16.5738 157.94 15.6897 159.929 14.7861C160.326 14.6121 160.641 14.2806 161.127 13.9216C158.345 11.6101 156.024 9.05932 152.748 7.68645C152.368 8.23768 151.965 8.65482 151.757 9.15087C150.288 12.5976 147.99 15.4451 145.262 17.9324C143.594 19.4506 141.729 20.7693 139.953 22.1673C138.306 23.462 136.504 24.4952 134.392 24.9395C133.726 25.0742 133.219 25.3924 132.71 25.8818C129.319 29.1639 125.258 31.2984 120.492 32.1696C114.072 33.3452 107.587 33.2869 101.14 31.8843C94.8497 30.517 88.5993 28.8845 82.3977 27.112C76.7454 25.499 71.0513 24.1405 65.2965 23.1056C58.2069 21.8449 51.1823 21.9724 44.2956 23.8399C41.0519 24.7195 38.4274 26.364 36.3102 29.2541C37.1756 29.3848 37.8153 29.5518 38.4498 29.5598C39.1274 29.561 39.7869 29.3944 40.462 29.3298C41.2468 29.2587 41.9618 29.4411 42.7354 30.1481C42.1955 30.5709 41.8452 31.0513 41.3663 31.2054C37.7715 32.4003 34.3235 31.9966 31.1518 29.6267C30.5408 29.1688 30.0192 28.5258 29.618 27.8745C29.3339 27.4135 29.2275 26.7919 29.2247 26.2416C29.2129 25.5937 29.624 25.2193 30.5171 25.2959C31.55 26.6662 32.7273 28.0903 34.7755 28.6254C35.2761 28.0658 35.8091 27.5561 36.2493 26.9732C38.4159 24.0806 41.3131 22.3316 44.8486 21.306C51.7089 19.3106 58.7242 19.0579 65.8096 20.3523C71.2674 21.3468 76.6734 22.7352 82.0791 24.0685C88.2386 25.5834 94.3521 27.3591 100.526 28.7835C106.875 30.2461 113.26 30.4086 119.593 29.2744C121.682 28.9054 123.723 28.357 125.539 27.2884C125.895 27.0769 126.46 26.964 126.353 26.2048C126.062 26.0589 125.738 25.8356 125.387 25.7489C119.995 24.452 115.127 21.8813 110.355 19.1299C109.499 18.6399 108.645 18.1605 107.782 17.6936C103.377 15.2961 98.8455 13.1945 94.1497 11.4552C92.6843 10.9199 91.1591 10.4714 89.6372 10.2261C88.5177 10.0481 87.3245 10.1575 86.2026 10.3434C85.6288 10.4412 85.1475 10.9867 84.4464 11.4353C90.3834 17.0555 97.279 19.5259 104.906 20.1881C105.493 18.6619 106.391 17.9467 107.599 18.0424C108.414 20.6151 107.967 22.9116 106.235 24.8973C105.745 25.4552 105.148 26.0853 104.288 25.8216C103.25 25.4985 103.603 24.5993 103.601 23.8671C103.598 23.6914 103.494 23.5099 103.4 23.2167C102.226 22.9649 100.999 22.6667 99.7502 22.4545C94.5532 21.5667 89.8447 19.4439 85.5659 16.338C84.074 15.2453 82.6824 13.9657 81.4151 12.6167C80.217 11.3336 80.4113 10.179 81.7422 9.20499C84.211 7.39821 86.9621 6.52623 90.147 7.24202C91.3809 7.51715 92.6617 7.69664 93.8321 8.17472C97.7312 9.76684 101.637 11.3634 105.442 13.1743C107.254 14.0394 109.024 15.0047 110.782 15.9885C112.113 16.7326 113.44 17.4829 114.773 18.2102C118.492 20.2444 122.325 21.9737 126.453 22.9563C127.108 23.1153 127.798 23.3899 128.449 23.3457C131.556 23.1488 134.63 22.7095 137.087 20.7119C139.356 18.8767 141.555 16.9481 143.722 14.9971C145.572 13.3394 146.827 11.2159 147.992 9.068C148.549 8.0534 149.219 6.94346 148.764 5.4417C148.072 5.58602 147.42 5.65773 146.819 5.86455C143.993 6.83116 141.502 8.3938 139.04 9.99561C136.182 11.854 133.181 13.3665 129.865 14.4614C126.264 15.6518 122.739 15.8442 119.045 14.8689C117.062 14.3509 115.091 13.8143 113.086 13.2722C112.548 13.7607 112.019 14.2367 111.458 14.7454C111.121 14.4582 110.858 14.3133 110.706 14.0899C110.481 13.7792 110.329 13.4183 110.161 13.0652C109.222 11.1017 110.61 8.25721 112.152 7.33741C112.489 7.14008 113.087 7.18705 113.51 7.32289C114.033 7.492 114.18 8.01356 114.062 8.51712C113.906 9.13143 113.709 9.73582 113.493 10.4644C117.681 12.1367 121.721 13.4419 126.062 12.3141C126.799 12.1186 127.571 12.011 128.336 11.9264C130.202 11.7144 131.848 11.0036 133.34 9.94871C135.183 8.63352 137.048 7.3424 138.861 5.98804C140.462 4.78894 142.147 3.75793 144.132 3.23496C147.522 2.33736 150.059 0.293922 152.004 -2.45846C153.634 -4.75254 155.201 -7.10812 156.63 -9.54062C159.266 -14.001 161.704 -18.5617 163.006 -23.65C163.116 -24.0586 163.516 -24.4864 162.632 -25.2143C162.267 -25.1006 161.636 -24.9054 161.011 -24.7058C158.013 -23.7115 154.991 -22.807 152.045 -21.6945C150.1 -20.9522 148.225 -20.0063 146.408 -18.9927C141.764 -16.4011 137.521 -13.2407 133.302 -10.0455C131.579 -8.7387 129.891 -7.37137 128.179 -6.03875C126.533 -4.76088 125.526 -3.10661 125.348 -1.01834C125.167 1.14179 124.694 3.36546 126.528 5.25123C126.66 5.37872 126.704 5.59188 126.773 5.7679C127.011 6.37949 126.816 6.912 126.452 7.35592C126.048 7.84493 125.492 7.94546 124.886 7.70145C124.341 7.48077 123.838 7.14313 123.284 6.96237C116.592 4.72361 110.127 1.89216 103.721 -1.08103C100.157 -2.74358 96.5658 -4.29709 92.7368 -5.20113C90.2322 -5.79503 87.7444 -6.03922 85.2387 -5.56466C82.6728 -5.08591 80.5149 -3.89633 79.1015 -1.79123C78.0595 -0.252481 77.3779 1.52566 76.5712 3.2083C76.5137 3.33318 76.6611 3.56278 76.766 3.88183C77.4882 3.77669 78.2231 3.62546 78.9713 3.5657C79.5969 3.50363 80.1082 3.80136 80.4101 4.37508C80.6359 4.79581 80.2952 5.48388 79.705 5.744C77.4021 6.76966 75.0621 6.83762 72.7325 5.53274C72.3313 5.31091 71.9723 4.91711 71.6993 4.53699C71.2834 3.94858 71.6964 3.10021 72.4297 3.04836C72.9715 3.01077 73.5228 3.12587 73.9747 3.16332C75.0596 1.18814 76.0767 -0.605402 77.0376 -2.42848C78.7273 -5.64079 81.4476 -7.49353 85.0145 -8.2324C87.3997 -8.72612 89.82 -8.6473 92.2379 -8.17712C95.502 -7.53466 98.6561 -6.53857 101.732 -5.19408C107.844 -2.51502 113.979 0.0887149 120.111 2.70929C120.715 2.97015 121.328 3.38369 121.977 2.8993C122.018 2.7992 122.071 2.70803 122.075 2.6193C122.098 2.14195 122.139 1.66735 122.113 1.19246C121.906 -3.13561 123.586 -6.52812 126.953 -9.1235C132.631 -13.5059 138.274 -17.9213 144.461 -21.6422C146.574 -22.9181 148.758 -24.0623 151.131 -24.8294C155.134 -26.1175 159.154 -27.3478 163.157 -28.6083C163.793 -28.8097 164.411 -29.0413 165.058 -29.2719C165.272 -29.846 165.504 -30.3624 165.66 -30.8942C167.117 -36.0128 167.832 -41.2767 167.892 -46.6277C167.933 -50.4285 166.689 -54.0005 164.59 -57.2754C163.868 -58.4038 163.067 -59.5139 161.452 -59.9149C161.116 -58.6385 160.773 -57.4765 160.513 -56.2947C158.905 -49.0592 155.191 -43.0762 149.966 -37.9517C146.517 -34.5722 142.677 -31.6638 138.471 -29.2638C134.282 -26.861 129.916 -24.7545 125.653 -22.4665C123.313 -21.22 120.955 -19.9763 118.751 -18.526C117.51 -17.7096 116.53 -16.5114 115.506 -15.4269C115.21 -15.1096 114.961 -14.5685 115.009 -14.1521C115.219 -12.0878 115.528 -10.0285 115.832 -7.8086C116.549 -8.07261 117.152 -8.32381 117.773 -8.51724C118.677 -8.78931 119.522 -8.46263 119.753 -7.80048C120.026 -7.01835 119.504 -6.56535 119.052 -6.09075C118.988 -6.02536 118.904 -5.97336 118.821 -5.92137C116.597 -4.48447 114.15 -4.39924 111.603 -5.16815C110.709 -5.43737 110.134 -6.04422 109.924 -6.79236C110.502 -8.10237 111.841 -7.21622 112.579 -7.99575C112.748 -9.46018 112.334 -10.952 112.126 -12.466C111.956 -13.7162 111.302 -14.5693 110.254 -15.2651C107.375 -17.159 104.509 -19.0714 101.382 -20.5235C98.4889 -21.8699 95.4843 -22.6532 92.316 -22.1877C86.7942 -21.3713 82.0906 -19.095 78.448 -14.9903C74.1275 -10.1104 71.457 -4.31188 69.5349 1.85639C69.0098 3.53227 69.0644 5.4068 68.9143 7.20411C68.8333 8.20834 69.2546 9.01063 70.1505 9.66501C71.3401 10.531 72.4399 11.527 73.5461 12.5C74.0496 12.9477 74.5511 13.4398 74.941 13.9828C75.5193 14.7929 74.9807 15.8927 74.0274 15.8203C73.2807 15.7531 72.4903 15.5554 71.811 15.2241C68.5334 13.6036 65.1331 12.4103 61.5822 11.6432C56.4788 10.5367 51.3686 10.2296 46.2595 11.0018C41.677 11.6892 37.5751 13.4117 34.1505 16.3689C23.3732 25.6519 20.3091 37.4389 24.0011 51.3443C24.1173 51.7716 24.3989 52.1669 24.6682 52.6908C24.9654 52.3291 25.171 52.1418 25.301 51.9117C25.7295 51.1379 26.1472 50.3658 26.5714 49.5983L28.1029 50.4533C27.3333 51.8326 26.7343 53.3387 26.2735 54.9492C25.9457 56.0757 26.0974 57.1581 26.6451 58.276C29.2789 63.629 32.4532 68.6417 36.498 73.1124C37.8801 74.6412 39.4271 76.0004 41.1858 77.1218C43.7321 78.7497 46.4663 79.2186 49.3052 78.718C51.5746 78.309 53.8001 77.7143 56.0148 77.1213C59.9309 76.084 63.536 74.3753 67.1236 72.6089C68.0506 72.1514 69.0295 71.7572 70.0304 71.4696C70.6167 71.2982 71.1798 71.6316 71.4924 72.2036C71.8289 72.8103 71.6316 73.3597 71.1105 73.6858C70.062 74.3335 69.022 74.9963 67.8931 75.4973C62.755 77.7664 57.5102 79.7883 52.0041 81.164C50.8956 81.4414 49.7762 81.693 48.7407 81.9476C48.0186 83.3688 48.7232 84.467 49.4855 85.4953C51.9435 88.817 54.8684 91.7112 58.1122 94.2953C61.9584 97.3497 66.3534 98.7354 71.1741 98.7971C75.4032 98.8439 79.3884 97.845 83.3316 96.6437C84.0575 96.4223 84.7396 96.0427 85.3873 95.6577C87.0987 94.6446 88.7863 93.5967 90.4761 92.5596C94.8764 89.8639 98.069 86.107 100.374 81.5733C100.533 81.2723 100.585 80.906 100.721 80.4602C100.262 80.2532 99.9295 80.0698 99.574 79.9618C99.0118 79.7934 98.4284 79.711 97.8747 79.5302C97.1659 79.2973 96.6648 78.4583 96.7191 77.7006C96.7525 77.084 97.3503 76.6189 98.1895 76.6767C99.2546 76.7532 100.318 76.8741 101.375 77.0455C105.14 77.6404 108.058 79.6986 110.531 82.5004C111.117 83.1605 111.13 84.001 110.671 84.598C110.134 85.3065 109.245 85.4881 108.356 84.9758C107.418 84.4383 106.55 83.785 105.62 83.2352C105.141 82.9598 104.596 82.7941 104.091 82.5834C103.365 83.6363 102.69 84.5323 102.103 85.4802C98.8194 90.7552 94.755 95.236 89.093 98.14C88.7969 98.2923 88.6072 98.6366 88.3333 98.923C88.6216 99.3502 88.8083 99.6891 89.0571 99.9795C91.3747 102.757 93.671 105.565 96.0466 108.299C101.081 114.092 107.28 118.376 114.08 121.831C116.711 123.17 119.52 124.057 122.441 124.49C125.722 124.97 128.823 124.532 131.751 123.196C133.942 122.194 134.794 120.57 134.509 118.144C134.464 117.765 134.391 117.386 134.296 117.01C133.762 114.75 133.641 112.474 133.505 110.177C133.242 105.847 133.44 101.597 134.512 97.4379C134.55 97.2721 134.463 97.0659 134.41 96.7275C133.854 96.5361 133.214 96.3416 132.6 96.11C131.876 95.83 131.102 95.5799 130.852 94.5024C131.225 94.2386 131.62 93.7345 132.099 93.6629C133.135 93.5183 134.215 93.5044 135.272 93.5933C138.112 93.8248 140.421 95.3257 142.607 97.0337C142.872 97.2443 142.927 97.9128 142.837 98.3073C142.784 98.5085 142.202 98.7288 141.884 98.6919C141.057 98.588 140.245 98.3387 139.317 98.119C138.3 100.315 137.861 102.544 137.347 104.73C137.088 105.812 137.047 107.008 137.201 108.129C137.601 111.165 138.15 114.194 138.681 117.219C138.774 117.777 139.067 118.308 139.268 118.849C140.382 121.874 142.515 124.213 145.009 126.125C154.562 133.471 165.049 138.756 176.864 141.338C186.651 143.481 196.164 143.251 205.55 140.557C211.021 138.983 216.084 136.616 220.568 133.202C224.295 130.362 227.509 127.003 229.348 122.688C232.613 115.042 233.138 106.951 231.634 98.6302C231.442 97.5928 231.125 96.57 230.763 95.5709C228.785 90.1676 226.09 85.1383 222.402 80.5937C218.605 75.9013 213.958 72.1388 209.248 68.4248C208.941 68.1768 208.604 67.9446 208.251 67.7922C204.276 66.1021 200.284 64.4368 195.963 64.0525C189.614 63.4765 183.397 64.2616 177.198 65.1594C176.089 65.3268 174.966 65.6121 173.79 66.5557C173.966 67.0339 174.221 67.5657 174.37 68.1254C174.486 68.5803 174.598 69.0964 174.506 69.5353C174.413 69.9466 174.132 70.4655 173.786 70.6202C173.439 70.7642 172.831 70.6196 172.469 70.397C171.565 69.8376 171.188 68.9015 171.146 67.9224C170.994 64.5823 170.752 61.2347 171.792 58.0222C171.931 57.5703 172.043 57.0897 172.31 56.7164C172.639 56.2395 173.147 55.9595 173.798 56.1797C174.442 56.3955 174.776 56.854 174.719 57.4909C174.67 58.0605 174.488 58.6019 174.404 59.1659C174.252 60.1761 174.135 61.1917 173.978 62.4175C174.872 62.2847 175.53 62.2174 176.168 62.0817C177.485 61.8203 178.778 61.3866 180.113 61.2655C184.342 60.8827 188.575 60.5213 192.816 60.3293C195.775 60.1949 198.514 59.424 201.207 58.4568C202.089 58.1332 202.869 57.5562 203.686 57.0778C204.413 56.647 204.64 55.9718 204.573 55.1399C204.39 52.8291 203.74 50.6263 202.841 48.4527C202.24 46.9964 201.392 46.092 199.717 45.7502C195.234 44.8522 190.836 43.4283 186.225 43.4651C185.266 43.4707 184.294 43.2579 183.324 43.1827C181.68 43.0451 180.036 42.88 178.388 42.8312C173.984 42.6914 169.774 43.5446 165.551 44.5433C159.797 45.9037 154.889 48.5873 150.647 52.4799C148.834 54.1538 147.271 56.0186 146.349 58.353C143.938 64.4677 146.432 70.5371 150.984 73.3842C151.487 73.6943 151.941 74.0894 152.459 74.3641C158.601 77.5944 164.801 79.1743 171.413 76.3765C178 73.5989 185.007 72.5271 192.286 72.8764C193.064 72.9108 193.846 72.9834 194.618 72.9584C197.065 72.8731 199.442 73.3884 201.795 74.1059C202.316 74.2643 202.878 74.2952 203.407 74.3862C203.524 73.58 203.516 72.8984 203.724 72.2923C203.991 71.4894 205.05 71.297 205.606 71.9455C206.033 72.4496 206.466 73.0683 206.592 73.6758C207.28 77.139 206.601 80.2989 204.561 83.105C204.35 83.3978 204.045 83.645 203.741 83.8646C203.272 84.199 202.372 84.1729 202.16 83.7611C201.962 83.3688 201.837 82.8438 201.925 82.4386C202.011 81.9953 202.418 81.6545 202.624 81.2303C202.859 80.7521 203.03 80.2399 203.251 79.6702C202.751 79.4533 202.408 79.2442 202.04 79.1547C194.808 77.3937 187.564 77.0499 180.424 78.6333C175.316 79.763 171.094 82.3529 168.383 86.9354C164.463 93.5627 165.661 101.691 174.116 106.251C175.835 107.18 177.641 107.996 179.458 108.701C188.096 112.025 196.756 112.422 205.391 109.723C206.663 109.32 207.913 108.894 208.951 107.873C208.785 107.393 208.643 106.948 208.49 106.504C208.346 106.048 208.059 105.577 208.1 105.157C208.135 104.761 208.442 104.287 208.781 104.073ZM19.6955 35.6267C20.5473 28.7661 23.5096 22.8215 27.9448 17.6368C34.1443 10.4061 42.2453 7.05477 51.9984 7.12722C55.5907 7.15521 59.163 7.48928 62.7013 8.32995C63.4422 8.50266 64.1999 8.6231 65.1085 8.80186C65.1814 8.32207 65.298 7.97291 65.2769 7.62938C65.1104 4.03274 65.801 0.634167 67.129 -2.63563C68.9797 -7.18995 71.1583 -11.5547 74.1069 -15.4981C78.111 -20.8614 83.5067 -24.086 90.1356 -25.4825C94.2375 -26.3459 98.2367 -25.8272 102.096 -24.0524C103.875 -23.2372 105.589 -22.2739 107.274 -21.2674C109.041 -20.2134 110.821 -19.2056 112.469 -18.2702C112.858 -18.4318 113.086 -18.4574 113.203 -18.5865C115.787 -21.4195 119.093 -23.2617 122.491 -24.9757C125.206 -26.3484 127.959 -27.6392 130.649 -29.0465C136.223 -31.9474 141.478 -35.2871 146.086 -39.5304C151.411 -44.4398 155.172 -50.2815 156.725 -57.4533C156.963 -58.5598 157.228 -59.6653 157.5 -60.7663C158.285 -63.8716 161.326 -64.7352 163.799 -63.1395C164.965 -62.3908 166.004 -61.5281 166.786 -60.3489C169.597 -56.1258 171.412 -51.5937 171.757 -46.5941C172.323 -38.3535 170.999 -30.4752 167.905 -22.9676C165.023 -15.9897 161.712 -9.23461 157.183 -3.16462C156.225 -1.88729 155.19 -0.663565 154.214 0.600357C153.59 1.39457 152.793 2.0789 152.441 3.17071C153.16 3.66635 153.771 4.12425 154.421 4.52641C158.805 7.22993 162.723 10.471 166.124 14.3239C168.588 17.1105 170.251 20.2407 170.644 23.9111C170.673 24.1872 170.78 24.4619 170.901 24.9105C171.415 24.982 171.964 25.1139 172.508 25.1145C181.362 25.1334 189.034 28.3765 195.821 34.1078C198.923 36.7312 201.594 39.6882 203.764 43.0947C207.498 48.9592 208.968 55.1546 207.513 61.8094C207.448 62.0842 207.44 62.3717 207.376 62.8666C208.532 63.7547 209.764 64.6963 210.985 65.6564C212.144 66.5658 213.283 67.5061 214.442 68.4154C219.184 72.1242 223.432 76.3145 226.95 81.1893C229.891 85.2648 232.105 89.6886 233.817 94.3417C234.991 97.5452 235.597 100.851 235.7 104.221C235.802 107.855 235.516 111.442 235.048 115.031C233.845 124.217 229.119 131.194 221.751 136.476C219.614 138.009 217.306 139.388 214.905 140.501C202.394 146.313 189.249 147.694 175.399 144.294C167.64 142.397 160.265 139.624 153.414 135.412C150.322 133.508 147.224 131.6 144.232 129.537C141.8 127.869 139.581 125.918 137.753 123.36C137.263 123.598 136.72 123.763 136.309 124.082C131.94 127.494 126.87 128.403 121.337 127.476C117.357 126.805 113.641 125.266 110.116 123.256C106.002 120.922 102.181 118.15 98.5074 115.178C97.2202 114.135 96.0247 112.945 94.9279 111.695C92.148 108.535 89.4538 105.307 86.7253 102.1C86.154 101.432 85.5936 100.762 84.9336 99.9874C84.1751 100.131 83.4292 100.229 82.7052 100.406C79.5386 101.202 76.3341 101.734 73.0265 101.875C66.405 102.152 60.5532 100.219 55.4589 95.8013C53.0824 93.733 50.8451 91.5322 48.9076 89.063C47.1973 86.8875 45.8047 84.5564 45.6998 81.6602C45.0921 81.4331 44.564 81.2151 44.0211 81.0326C40.4099 79.8127 37.4071 77.6689 34.7499 74.9685C29.0033 69.1414 24.8287 62.3788 21.9861 54.8622C19.61 48.5813 18.8957 42.1211 19.6955 35.6267Z" fill="black"/>
<g id="Group">
<path id="Vector_5" d="M209.02 89.1772C209.05 88.5667 208.659 87.8861 209.27 87.375C209.723 87.2305 210.1 87.0431 209.906 86.4521C208.748 85.9279 207.511 85.9066 206.302 85.8313C203.111 85.6231 199.907 85.3509 196.717 85.3078C193.047 85.2537 189.423 85.7155 185.86 86.4757C185.233 86.6096 184.592 86.7346 183.952 86.8321C183.601 86.883 183.462 86.586 183.349 86.3343C183.197 86.0009 182.982 85.6059 183.333 85.3181C183.68 85.0365 184.073 84.7862 184.498 84.6132C185.794 84.0908 187.181 83.8954 188.578 83.7257C190.981 83.4273 193.449 83.4655 195.796 82.8181L195.997 82.874C196.355 83.0202 196.703 83.0137 197.053 82.8803L196.993 82.8845C197.86 83.4278 198.827 83.2723 199.748 83.3224C203.473 83.5329 207.209 83.4773 211.016 84.3572C210.735 83.67 210.498 83.1685 210.317 82.6414C210.208 82.3286 210.454 82.1238 210.703 82.0121C210.944 81.9129 211.324 81.7637 211.468 81.8726C212.677 82.7795 213.884 83.7032 215.014 84.7109C215.686 85.3022 215.796 86.1821 215.893 87.0256C215.954 87.561 215.76 87.9391 215.257 88.086C213.659 88.5468 212.05 88.9817 210.448 89.4212C210.169 89.6312 209.845 89.6449 209.511 89.5884C209.287 89.5253 209.129 89.38 209.04 89.163L209.02 89.1772Z" fill="#FBBD0D"/>
<path id="Vector_6" d="M102.511 32.9849C102.562 33.2575 102.576 33.5416 102.664 33.8029C102.941 34.6338 102.405 34.9403 101.795 35.2146C101.782 35.6627 102.122 35.6686 102.428 35.724C106.605 36.5666 110.839 36.6621 115.042 37.1205C115.513 37.1714 115.978 37.2178 116.445 37.2473C117.233 37.2969 117.597 37.7945 117.809 38.4708C117.97 38.9844 117.723 39.4537 117.246 39.4534C116.779 39.4514 116.316 39.4157 115.847 39.3755C112.202 39.0366 108.56 38.6916 104.936 38.3493C104.32 38.9111 105.034 39.3854 105.067 39.8923C105.113 40.5181 104.631 40.6065 104.297 40.8695C104.194 40.9082 104.08 40.9485 103.977 40.9871C103.506 40.9913 103.052 40.8606 102.584 40.7485C102.345 40.6934 102.123 40.6134 101.899 40.5228C101.19 40.2624 100.735 39.6472 100.135 39.2426C98.9335 38.4777 97.638 37.9316 96.3191 37.4334C95.8795 37.2673 95.4205 37.1153 95.045 36.8564C94.2161 36.2848 94.2465 35.0629 95.0613 34.5464C95.9169 34.0123 96.8596 33.6845 97.8631 33.4901C98.7592 33.3129 99.7163 33.2967 100.473 32.7125C101.178 32.6046 101.851 32.6945 102.511 32.9849Z" fill="#FBBD0D"/>
<path id="Vector_7" d="M153.621 -34.2614C153.053 -33.4377 152.795 -33.0767 152.545 -32.7006C150.139 -29.0042 146.685 -26.4882 142.858 -24.3749C139.623 -22.5936 136.169 -21.2562 132.701 -19.9826C127.991 -18.2503 124.274 -15.1746 120.792 -11.773C120.278 -11.2774 119.928 -10.6045 119.538 -9.99649C119.346 -9.69027 119.255 -9.32327 119.069 -9.01258C118.807 -8.56289 118.339 -8.46553 117.861 -8.54836C117.417 -8.62571 117.033 -9.41188 117.191 -9.93301C117.511 -10.9921 117.904 -12.019 118.678 -12.8374C119.493 -13.7009 120.278 -14.6035 121.202 -15.3468C123.059 -16.8349 124.971 -18.2492 126.897 -19.6439C128.162 -20.5632 129.622 -21.1559 131.09 -21.7334C134.441 -23.0598 137.866 -24.2164 141.035 -25.9429C143.311 -27.179 145.457 -28.5595 147.43 -30.2149C148.205 -30.8682 148.851 -31.6109 149.372 -32.4215C149.053 -32.9429 148.688 -32.7191 148.364 -32.6779C147.889 -32.6125 147.413 -32.5747 147.125 -33.0844C146.812 -33.6289 146.812 -34.1685 147.291 -34.587C147.842 -35.0665 148.412 -35.5326 149.005 -35.964C150.63 -37.1559 152.25 -38.3416 153.898 -39.4988C154.659 -40.0342 155.317 -39.7819 155.633 -38.8692C155.79 -38.4319 155.96 -37.9581 155.941 -37.5145C155.842 -35.3895 155.915 -33.2646 156.111 -31.1375C156.143 -30.7406 155.929 -30.431 155.484 -30.3814C155.071 -30.3371 154.69 -30.4905 154.565 -30.8779C154.257 -31.8306 154.024 -32.7954 153.619 -34.2721L153.621 -34.2614Z" fill="#FBBD0C"/>
<path id="Vector_8" d="M92.8532 71.1688C92.3728 71.0202 92.1142 70.9242 91.845 70.8573C91.3346 70.7247 91.0319 70.4154 90.9368 69.9021C90.835 69.3292 91.1906 69.0352 91.6502 68.8952C93.2696 68.4035 94.6612 67.5354 96.0549 66.6505C96.7818 66.1921 97.586 66.5639 97.831 67.3726C97.89 67.5503 97.9511 67.7387 97.9542 67.9144C97.975 69.4915 98.1635 71.0471 98.5176 72.5981C98.6099 72.9908 98.4673 73.2946 98.0247 73.4098C97.6295 73.5119 97.272 73.4207 96.9824 73.1479C96.4939 72.6923 96.5931 71.8834 95.8013 71.4105C94.7555 72.6084 93.6602 73.8088 92.6232 75.0494C88.9646 79.3989 84.9103 83.3109 80.0168 86.3336C75.4837 89.1387 70.6208 90.9671 65.0488 90.7894C61.3485 90.6686 58.0402 89.3835 54.9732 87.3051C54.2545 86.8094 53.6235 86.2281 53.4405 85.3434C53.392 85.1089 53.4569 84.7516 53.6175 84.6156C53.7974 84.4655 54.1929 84.3909 54.3955 84.485C54.9065 84.7277 55.3772 85.0705 55.8391 85.3982C60.6296 88.8569 65.8159 89.3444 71.197 87.9008C74.0797 87.1288 76.7297 85.8215 79.206 84.2118C83.6183 81.3325 87.3689 77.7502 90.7238 73.758C91.3653 72.994 91.9873 72.2166 92.8447 71.1811L92.8532 71.1688Z" fill="#FBBD0D"/>
<path id="Vector_9" d="M46.6007 34.394C45.8477 34.3775 45.1626 34.5813 44.5429 34.9673C43.6276 35.1861 42.6579 35.2484 41.8518 35.7801C39.9328 36.1658 38.0248 36.5772 36.1036 36.9248C33.3163 37.4336 30.5283 37.8049 28.0501 36.0504C27.0861 36.4091 27 37.2545 26.5143 37.7786C26.1699 38.1534 25.7122 38.2491 25.245 38.1645C24.8425 38.0971 24.451 37.2514 24.5625 36.7434C24.6381 36.3843 24.7741 36.0486 24.8971 35.7039C25.3428 34.5033 25.7713 33.3 26.2429 32.1174C26.6231 31.1641 27.2668 30.8403 28.2103 31.1071C29.3067 31.4154 30.386 31.7484 31.4655 32.1089C31.7219 32.1943 32.0153 32.3784 32.1433 32.5946C32.3234 32.9016 32.4717 33.2963 32.454 33.6405C32.4302 34.0353 32.044 34.2351 31.6569 34.2423C31.287 34.2522 30.9144 34.169 30.5442 34.1239C30.2842 34.1822 29.9981 34.1676 29.7904 34.3717C30.2284 34.6372 30.5322 35.1666 31.1511 35.045C32.7638 35.3528 34.3283 35.0792 35.8646 34.7495C39.5841 33.9696 43.3034 33.1622 46.8612 31.8686C51.3786 30.2225 56.1278 29.321 60.7721 28.073C61.3026 27.9271 61.866 27.886 62.4271 27.8343C62.8356 27.7962 63.1335 28.0016 63.3461 28.3584C63.8059 29.1049 63.5079 29.7311 62.8826 29.8757C60.2658 30.4838 57.6642 31.1389 55.0538 31.7515C52.1684 32.4303 49.3355 33.2824 46.5985 34.3834L46.6007 34.394Z" fill="#FBBD0C"/>
<path id="Vector_10" d="M89.5307 4.87921C90.1259 5.17997 90.7383 5.48346 91.0898 6.08224C91.3371 6.49952 91.4706 6.95713 91.1285 7.37008C90.8698 7.67602 90.4614 7.74169 90.1145 7.62127C89.2139 7.32007 88.3153 7.00203 87.455 6.60072C85.9911 5.91104 84.5547 5.16735 83.1142 4.42985C82.7799 4.26334 82.4498 4.06312 82.1518 3.83021C81.6119 3.39391 81.5796 2.54004 82.1306 2.17059C83.7363 1.10286 85.3552 0.071571 86.987 -0.950788C87.36 -1.18701 87.802 -1.41227 88.2452 -0.960416C88.7512 -0.447055 88.8272 0.135431 88.4216 0.751333C88.3234 0.893785 88.1151 0.960339 88.0061 1.10452C87.7519 1.45928 87.9152 1.84602 88.3498 1.88074C89.0986 1.93103 89.8559 1.94141 90.6047 1.99169C94.5143 2.23848 98.1861 3.53675 101.864 4.83949C102.463 5.05153 102.728 5.55408 102.899 6.11036C103.078 6.68176 102.561 7.29363 102.001 7.1359C101.548 7.01591 101.119 6.79308 100.677 6.64385C96.9908 5.38101 93.2914 4.16425 89.3781 4.03369C88.8959 4.38658 88.8457 4.681 89.52 4.88093L89.5307 4.87921Z" fill="#FBBD0D"/>
<path id="Vector_11" d="M147.863 114.074C150.801 116.949 154.068 119.431 157.535 121.621C165.472 126.627 173.97 130.03 183.284 130.822C192.677 131.625 201.621 130.307 209.896 126.052C210.282 125.853 210.659 125.528 211.244 125.885C210.965 126.927 210.176 127.544 209.271 127.998C207.79 128.731 206.317 129.525 204.753 130.073C192.1 134.553 179.344 134.457 166.527 129.101C160.348 126.521 154.526 123.311 149.483 118.819C148.986 118.376 148.448 117.977 147.915 117.573C147.764 117.46 147.583 117.39 147.41 117.307C146.853 117.617 147.171 118.084 147.246 118.501C147.348 119.046 147.54 119.599 147.541 120.139C147.545 120.59 147.291 121.055 146.81 121.198C146.325 121.348 145.864 121.13 145.554 120.734C145.272 120.366 144.974 119.968 144.834 119.533C143.84 116.499 143.091 113.415 142.669 110.272C142.604 109.798 142.645 109.351 142.881 108.939C143.131 108.508 143.568 108.178 144.021 108.408C146.042 109.455 148.041 110.559 150.024 111.689C150.451 111.928 150.638 112.405 150.453 112.908C150.322 113.265 150.084 113.54 149.68 113.6C149.405 113.638 149.128 113.639 148.85 113.64C148.569 113.646 148.289 113.636 148.011 113.637C147.779 113.559 147.667 113.637 147.683 113.877C147.69 113.936 147.753 113.998 147.857 114.069L147.863 114.074Z" fill="#FBBC0A"/>
<path id="Vector_12" d="M158.254 56.537C159.059 57.0464 160.047 57.1518 160.119 58.17C160.142 58.5517 160.118 58.974 159.673 59.0511C157.651 59.3654 155.618 59.6538 153.59 59.9193C153.173 59.9698 152.916 59.6643 152.74 59.2961C152.444 58.6719 152.387 58.0478 152.616 57.4107C153.227 55.6935 153.819 53.9629 154.46 52.2573C154.596 51.894 154.995 51.7857 155.384 51.7617C155.855 51.73 156.033 52.0813 156.203 52.4175C156.561 53.1308 156.206 53.8818 156.374 54.7194C157.476 54.41 158.305 53.7205 159.16 53.1039C163.18 50.183 167.695 48.4437 172.774 48.0344C173.795 47.9527 174.82 47.7823 175.828 47.6367C177.051 47.4566 178.265 47.5532 179.477 47.8318C179.932 47.935 180.387 48.1206 180.799 48.3407C181.428 48.6745 181.85 49.4493 181.749 49.9556C181.665 50.4096 180.858 50.6661 180.06 50.2988C178.598 49.6197 177.123 49.6533 175.626 49.8278C174.141 50.0007 172.655 50.1735 171.177 50.4058C166.261 51.1743 162.138 53.4398 158.265 56.5353L158.254 56.537Z" fill="#FBBD0C"/>
<path id="Vector_13" d="M117.876 64.3525C118.068 67.5099 118.497 70.6294 119.897 73.5871C121.401 76.7813 123.401 79.6041 126.14 81.9224C126.866 82.5326 127.575 83.1675 128.217 83.8572C128.701 84.374 128.746 85.1267 128.383 85.3337C127.942 85.5865 127.492 85.5047 127.064 85.21C126.831 85.0492 126.583 84.8964 126.367 84.7108C120.968 80.0834 117.434 74.4568 116.42 67.4886C116.313 66.7569 116.254 66.0121 116.14 65.2759C116.031 64.561 116.174 63.8002 115.734 63.1221C115.088 63.0057 114.994 63.544 114.791 63.8794C114.42 64.5008 114.163 65.1919 113.786 65.8088C113.594 66.115 113.19 66.202 112.789 66.1453C112.354 66.083 112.155 65.7902 112.033 65.4134C111.882 64.953 111.839 64.5029 112.06 64.0708C112.987 62.2973 113.918 60.5176 114.869 58.7512C114.992 58.5166 115.206 58.3169 115.41 58.1466C115.815 57.8226 116.241 57.8147 116.671 58.1751C116.744 58.2349 116.824 58.2991 116.867 58.3747C117.841 59.8867 118.861 61.3581 120.13 62.6628C120.511 63.0532 120.671 63.6937 120.185 64.1628C119.806 64.5321 119.337 64.4094 118.89 64.1838C118.436 63.5961 118.121 63.79 117.876 64.325L117.876 64.3525Z" fill="#FBBD0D"/>
</g>
<g id="Group_2">
<path id="Vector_14" d="M207.241 38.4822C207.142 38.5972 206.756 39.1164 206.291 39.5546C206.124 39.7136 205.75 39.7847 205.524 39.711C205.315 39.64 205.055 39.3238 205.043 39.1054C204.993 38.4583 204.99 37.798 205.085 37.1604C205.31 35.6429 206.085 34.395 207.079 33.2714C207.389 32.9186 207.801 32.6266 208.312 32.8418C208.926 33.101 209.073 33.6501 209.052 34.2481C208.995 35.7166 208.194 36.8641 207.245 38.476L207.241 38.4822Z" fill="#FBBF13"/>
<path id="Vector_15" d="M172.474 15.3397C173.022 14.365 173.924 14.0272 174.711 13.5647C175.515 13.1049 176.389 12.7662 177.335 12.6416C177.92 12.5696 178.473 12.6403 178.835 13.2099C179.16 13.7357 179 14.4938 178.359 14.9108C176.777 15.9307 175.04 16.524 173.062 16.3024C172.573 16.2488 172.293 15.6166 172.474 15.3397Z" fill="#FBC018"/>
</g>
</g>
<defs>
<clipPath id="clip0_1_116">
<rect width="229.381" height="201.349" fill="white" transform="translate(188.836 187.976) rotate(-145.411)"/>
</clipPath>
</defs>
</svg>
