<svg width="122" height="122" viewBox="0 0 122 122" fill="none" xmlns="http://www.w3.org/2000/svg">
<g id="Objects" clip-path="url(#clip0_23_455)">
<g id="think">
<path id="Vector" d="M95.5619 75.9986C94.8871 77.1237 94.2177 78.2521 93.5102 79.358C92.9719 80.2004 92.3671 81.0001 91.8082 81.8341C91.5645 82.1932 91.3432 82.5765 91.2828 83.1605C91.8667 82.99 92.1035 82.6488 92.3404 82.3076C92.9938 81.3751 93.6285 80.4244 94.3022 79.5075C95.5852 77.7642 96.434 75.7992 97.2413 73.8171C97.2926 73.686 97.3644 73.4825 97.0737 73.4219C96.5714 74.2781 96.0756 75.1418 95.5619 75.9986ZM90.7732 81.5053C91.5869 80.8869 92.0834 80.0969 92.5859 79.3215C94.1743 76.8705 94.9683 75.3424 95.1851 74.392C94.8687 74.4189 94.7027 74.6331 94.5574 74.8557C94.0231 75.6602 93.4932 76.4635 92.9764 77.2818C92.3896 78.2131 91.8079 79.1546 91.2441 80.103C91.0073 80.5065 90.7642 80.921 90.7704 81.5037L90.7732 81.5053ZM45.3899 20.4789C45.0379 21.185 44.8009 21.9513 44.5519 22.7068C44.4377 23.0577 44.3279 23.4258 44.424 24.043C44.9791 23.0968 45.4428 22.3316 45.8846 21.5536C46.9542 19.6557 47.9719 17.7275 48.8153 15.7153C48.9605 15.368 49.0604 14.9977 49.1544 14.6314C49.1732 14.5618 49.0932 14.4233 49.0262 14.3876C48.9548 14.353 48.7951 14.3692 48.7474 14.4256C48.5287 14.6858 48.2987 14.9467 48.1357 15.2432C47.2072 16.9819 46.2732 18.7174 45.3926 20.4805L45.3899 20.4789ZM44.6329 20.3573C45.5406 18.6541 46.4183 16.9332 47.3086 15.2161C47.5597 14.7257 47.8135 14.2368 48.058 13.7389C48.1282 13.6005 48.1793 13.4509 48.2581 13.2479C47.949 13.1875 47.7574 13.2766 47.6271 13.4238C47.2636 13.8372 46.881 14.2395 46.5781 14.6995C45.4348 16.4294 44.4714 18.265 43.6028 20.1451C43.4026 20.5738 43.3147 21.061 43.2168 21.5277C43.1862 21.6673 43.2827 21.8339 43.3373 22.0345C43.9883 21.5808 44.3119 20.9607 44.6329 20.3573ZM97.9086 77.8336C97.5136 78.5255 97.093 79.1987 96.6828 79.8853C95.4652 81.9419 94.1624 83.9374 92.7117 85.8352C92.2507 86.4334 91.6871 86.9567 91.1376 87.481C90.6305 87.9642 89.9963 88.1455 89.3139 87.9467C88.5854 87.7392 87.8454 87.5323 87.1553 87.2153C86.028 86.7005 84.9105 86.1438 83.8266 85.5298C81.9652 84.467 80.1426 83.3316 78.2923 82.2497C75.2462 80.4698 72.2129 78.6681 69.1305 76.9438C67.4137 75.9842 65.6271 75.1375 63.8454 74.301C63.1972 73.994 62.4719 73.8433 61.7712 73.6631C61.3201 73.545 60.8643 73.6222 60.4716 73.8792C60.0389 74.1605 59.6108 74.4591 59.2227 74.7958C58.1786 75.7007 57.1527 76.6308 56.1164 77.5475C55.9492 77.695 55.7514 77.8135 55.5054 77.9954C55.3845 77.3893 55.4966 76.8797 55.5448 76.3728C55.7033 74.7908 55.8689 73.2092 56.0317 71.6261C56.0541 71.4193 56.0678 71.2148 56.0847 71.0048C56.1273 70.37 55.9238 69.8547 55.3517 69.5117C55.1445 69.3901 54.9537 69.2342 54.7449 69.1154C53.1658 68.2585 51.5823 67.4028 49.9968 66.5568C47.8298 65.4026 45.6531 64.2648 43.4861 63.1106C40.8895 61.7264 38.2973 60.341 35.7179 58.9339C32.407 57.1306 29.1168 55.2918 26.0577 53.0717C25.2998 52.5207 24.5692 51.9418 24.0189 51.1681C23.822 50.8913 23.6412 50.5873 23.515 50.2713C23.2867 49.7048 23.3061 49.1408 23.5617 48.5614C24.376 46.73 25.2153 44.906 26.2214 43.1725C27.9255 40.2432 29.672 37.3351 31.3897 34.4138C32.2472 32.9523 33.0829 31.4781 33.9349 30.0134C35.7419 26.9025 37.5652 23.8012 39.3612 20.6839C41.1044 17.6566 42.815 14.6101 44.5582 11.5828C45.1291 10.591 45.776 9.65097 46.3535 8.66666C46.6846 8.10225 47.144 7.95026 47.7534 8.05489C48.7901 8.23069 49.7545 8.59858 50.684 9.06333C53.0335 10.2439 55.3734 11.4409 57.7217 12.6171C59.8865 13.7003 62.0608 14.7672 64.2287 15.8449C64.6935 16.0773 65.1427 16.3299 65.6059 16.565C68.2558 17.9145 70.902 19.2765 73.5619 20.6026C75.6405 21.6389 77.6508 22.7854 79.5667 24.0928C80.1628 24.5012 80.7814 24.8898 81.4042 25.2589C88.4959 29.4455 95.596 33.6114 102.678 37.8143C104.548 38.9258 106.389 40.0979 108.19 41.3196C109.619 42.2897 110.956 43.3896 112.113 44.6915C112.598 45.2397 113.01 45.8299 113.367 46.4646C113.851 47.3203 113.991 48.194 113.66 49.1509C113.14 50.6563 112.523 52.1197 111.868 53.5678C111.052 55.3693 110.056 57.068 108.984 58.7262C108.707 59.1611 108.491 59.6354 108.237 60.0874C107.378 61.6324 106.51 63.1612 105.481 64.6027C104.923 65.3856 104.502 66.2713 104.025 67.1094C103.577 67.8912 103.123 68.6656 102.674 69.4432C101.933 70.7311 101.192 72.019 100.456 73.3101C99.6047 74.8116 98.7624 76.3223 97.9064 77.825L97.9086 77.8336ZM90.7377 56.8905C92.2611 55.281 92.6456 53.2451 91.4353 51.4098C91.2658 51.149 91.1377 50.8613 90.959 50.6099C89.8242 49.002 88.3681 47.9168 86.3091 47.9402C85.6255 47.9497 84.9406 48.1049 84.2613 48.2195C83.7211 48.3094 83.3403 48.6834 82.9917 49.0653C82.6693 49.4149 82.6308 49.8615 82.8554 50.2096C83.0939 50.584 83.4285 50.8133 83.8967 50.7399C84.1674 50.6971 84.4355 50.6088 84.7066 50.559C86.1901 50.2858 87.5829 50.392 88.8384 51.3632C89.6049 51.9558 90.0042 52.6996 90.1244 53.6315C90.17 53.9661 90.084 54.2565 89.8913 54.51C89.2623 55.3321 88.5038 55.9501 87.4256 56.0761C86.6658 56.1655 85.9105 56.1658 85.1605 55.9823C84.6588 55.8566 84.1487 55.7515 83.6502 55.6203C81.8749 55.1541 80.1673 55.3471 78.473 56.0171C76.9462 56.6203 75.5929 57.5087 74.2426 58.4171C73.6565 58.8099 73.1661 59.2772 72.7904 59.9988C72.9938 60.3893 73.1844 60.7578 73.3767 61.1235C73.607 61.5555 73.972 61.6707 74.4278 61.5496C74.6269 61.4978 74.8334 61.4394 75.0086 61.3406C76.2736 60.6277 77.5474 59.931 78.7843 59.1722C79.4628 58.753 80.1651 58.5493 80.9486 58.6131C81.3572 58.6476 81.771 58.7108 82.1767 58.7876C82.7895 58.9052 83.3855 59.0826 83.9985 59.1747C86.3774 59.5369 88.5393 59.1193 90.2946 57.327C90.4406 57.1781 90.5998 57.0442 90.7404 56.8921L90.7377 56.8905ZM71.1361 63.9616C71.5729 63.7231 71.8937 63.3762 72.1312 62.9401C72.5062 62.2511 72.2362 61.4806 71.4878 61.2944C71.1003 61.1989 70.6595 61.2006 70.2665 61.2706C69.6685 61.3778 69.0598 62.1716 69.0332 62.7791C69.0166 63.1322 69.0711 63.483 69.3435 63.7308C69.6482 64.0049 69.9499 64.3029 70.4245 64.3248C70.6548 64.207 70.8982 64.0859 71.1377 63.9588L71.1361 63.9616ZM76.1736 48.0045C76.7876 47.4264 77.3031 46.7979 77.5716 45.9841C77.7243 45.5239 77.9309 45.0844 78.0641 44.62C78.6021 42.7659 78.131 40.7265 76.3015 39.653C76.0343 39.4962 75.7863 39.3067 75.5147 39.1511C73.8012 38.186 72.0388 37.8227 70.1697 38.6906C69.4735 39.0152 68.8722 39.4651 68.2916 39.9675C67.8702 40.3359 67.7019 40.8163 67.5723 41.3121C67.471 41.7035 67.5597 42.0707 67.9243 42.3176C68.29 42.5689 68.6878 42.6593 69.0799 42.3909C69.3325 42.2165 69.5608 42.0023 69.81 41.815C71.0423 40.8703 72.3743 40.3617 73.9659 40.7164C74.8315 40.909 75.4718 41.3544 75.9588 42.0799C76.1607 42.3854 76.2501 42.7017 76.1793 43.0597C75.9727 44.1114 75.5338 45.0157 74.5783 45.6133C73.9883 45.9819 73.3781 46.2909 72.6955 46.4549C72.0231 46.6138 71.3552 46.7901 70.684 46.9533C69.2224 47.3017 68.0418 48.1081 67.0047 49.1636C65.7314 50.4654 64.8461 52.0242 63.9577 53.5885C63.6102 54.2056 63.392 54.8399 63.428 55.6344C63.6939 55.8308 63.9794 56.0752 64.2986 56.2809C64.9097 56.6761 65.2514 56.631 65.7549 56.1164C65.8279 56.0419 65.8889 55.9567 65.9455 55.8727C66.6936 54.7539 67.513 53.6696 68.1668 52.4991C68.7886 51.3832 69.6965 50.754 70.8725 50.4177C71.4386 50.2587 72.0081 50.1127 72.5821 49.984C73.9675 49.6716 75.1417 48.9824 76.1715 48.0142L76.1736 48.0045ZM63.5459 60.0873C63.6081 60.0065 63.6865 59.9352 63.8524 59.765C63.9219 59.4466 64.0695 59.02 64.113 58.5837C64.1941 57.7957 63.6197 57.2754 62.8356 57.3687C61.8115 57.4899 61.1 58.359 61.1752 59.3927C61.2214 59.9513 61.59 60.3912 62.1778 60.5638C62.9239 60.7852 63.066 60.7367 63.5444 60.09L63.5459 60.0873ZM53.6555 55.3985C53.7331 55.1288 53.8262 54.8389 53.8987 54.5406C54.0215 54.0189 53.9438 53.5078 53.7557 53.0163C53.5754 52.5366 53.0897 52.2773 52.588 52.3641C51.3712 52.5701 50.7188 54.2692 51.4889 55.2306C51.765 55.5721 52.1081 55.7808 52.5637 55.7475C52.9424 55.7205 53.3282 55.694 53.6555 55.3985ZM53.2794 50.9921C53.916 51.1127 54.0741 51.0369 54.3833 50.5036C54.4697 50.3563 54.5511 50.1989 54.5934 50.0331C54.9307 48.6586 55.3256 47.2922 55.5635 45.8997C55.7399 44.8743 56.2225 44.1019 56.996 43.4708C57.2628 43.2534 57.5466 43.0571 57.832 42.858C58.3392 42.4995 58.882 42.1803 59.3552 41.7798C61.1018 40.3086 62.2125 38.5155 62.1029 36.1348C62.0947 35.9614 62.0908 35.7868 62.0995 35.6159C62.1351 34.8305 61.9322 34.0957 61.5867 33.4164C61.1415 32.5322 60.5023 31.8163 59.529 31.4761C58.4088 31.0864 57.2718 30.8628 56.0743 30.9299C53.7404 31.0596 52.2924 32.4092 51.2766 34.3716C51.0633 34.7852 51.0444 35.2359 51.0835 35.6877C51.1239 36.2062 51.4092 36.5569 51.8737 36.6461C52.3224 36.7371 52.6957 36.6006 52.9434 36.2035C53.0924 35.9684 53.2152 35.7215 53.3696 35.4896C54.1922 34.2313 55.2207 33.2843 56.7978 33.0514C57.5178 32.9424 58.1797 33.0449 58.8116 33.3423C59.2855 33.5654 59.6981 33.8991 59.7829 34.473C59.9503 35.5682 59.8515 36.5987 59.1007 37.5034C58.6308 38.067 58.125 38.573 57.5125 38.9797C56.9372 39.3605 56.3592 39.7397 55.7938 40.1411C54.6905 40.9158 53.9194 41.9552 53.3588 43.173C52.5337 44.954 52.1923 46.854 51.9162 48.7738C51.8259 49.4026 51.8644 50.0116 52.1607 50.7059C52.5505 50.81 52.9084 50.9247 53.2805 50.9964L53.2794 50.9921Z" fill="#FBBC08"/>
<path id="Vector_2" d="M101.75 74.3222C101.112 75.4724 100.515 76.6467 99.8411 77.7762C98.3084 80.3259 96.7528 82.8586 95.0811 85.3267C94.2398 86.5668 93.2694 87.6835 92.1585 88.6774C91.2857 89.4591 90.2413 89.7773 89.0773 89.5122C87.9291 89.2453 86.826 88.8327 85.7649 88.3237C83.6414 87.3014 81.6128 86.1111 79.6151 84.862C78.4727 84.1478 77.3313 83.4194 76.1634 82.7488C73.2228 81.0638 70.2689 79.3893 67.3086 77.7441C66.1268 77.091 64.9193 76.4815 63.6992 75.9122C63.081 75.6228 62.3958 75.4663 61.7387 75.2494C61.4129 75.1425 61.1259 75.238 60.8683 75.4461C60.6811 75.5965 60.483 75.7405 60.3051 75.9C59.0892 76.9789 57.8684 78.0476 56.6657 79.1416C56.1585 79.6064 55.7027 80.127 55.2202 80.6246C54.948 80.9011 54.6696 81.1445 54.2266 81.0312C53.8254 80.9278 53.6152 80.7238 53.6247 80.3079C53.6377 79.7547 53.6762 79.2019 53.7315 78.6515C53.9775 76.3145 54.2376 73.9784 54.4852 71.6386C54.5134 71.3656 54.5004 71.0941 54.5091 70.8169C53.8551 70.3012 53.1398 69.9585 52.4378 69.587C50.568 68.6072 48.6897 67.648 46.831 66.6491C42.5922 64.3783 38.3645 62.0884 34.1337 59.804C32.8222 59.0968 31.4959 58.4213 30.224 57.653C28.1787 56.4163 26.1943 55.0944 24.281 53.6639C23.5551 53.1207 22.9591 52.4374 22.4804 51.6728C21.8449 50.6695 21.6518 49.5556 21.9114 48.3884C22.2171 46.999 22.6267 45.645 23.1767 44.3329C24.1066 42.1296 25.2115 40.0216 26.435 37.9612C29.5248 32.7514 32.5638 27.5155 35.6574 22.3116C37.017 20.0195 38.4229 17.7545 39.8528 15.511C40.689 14.1983 41.6256 12.9519 42.4983 11.6643C42.7891 11.2375 43.016 10.7695 43.2756 10.3207C43.7828 9.4564 44.2413 8.55622 44.808 7.73413C45.5569 6.64512 46.6189 6.19065 47.9564 6.40362C49.1647 6.59942 50.2948 7.0096 51.385 7.55031C52.9634 8.33346 54.5525 9.10457 56.1321 9.89205C57.1836 10.4174 58.224 10.9619 59.2735 11.497C61.9529 12.8712 64.6307 14.2481 67.311 15.6081C69.5653 16.7512 71.8221 17.8774 74.0848 18.9997C76.445 20.1683 78.7284 21.4677 80.8795 22.9864C81.3031 23.2826 81.7455 23.5532 82.1938 23.8198C88.7483 27.6912 95.314 31.5436 101.853 35.4352C104.262 36.8705 106.638 38.3561 108.976 39.9001C110.53 40.9296 111.966 42.1311 113.23 43.5181C113.865 44.2167 114.411 44.9661 114.846 45.793C115.023 46.1279 115.167 46.4833 115.273 46.846C115.544 47.7271 115.534 48.5936 115.241 49.4922C114.686 51.2077 113.963 52.8511 113.219 54.4888C112.41 56.2539 111.445 57.9306 110.366 59.5444C110.155 59.8604 110 60.2127 109.824 60.5495C108.964 62.171 108.061 63.7598 106.993 65.2623C106.491 65.9612 106.089 66.7335 105.653 67.4778C105.022 68.5521 104.392 69.6264 103.777 70.706C103.09 71.9082 102.421 73.1174 101.749 74.3249L101.75 74.3222ZM96.683 79.8854C97.0916 79.2015 97.5122 78.5283 97.9088 77.8336C98.7632 76.3337 99.6056 74.823 100.459 73.3188C101.194 72.0277 101.935 70.7398 102.676 69.4519C103.123 68.6727 103.577 67.8983 104.027 67.118C104.509 66.2789 104.927 65.3916 105.483 64.6113C106.512 63.1699 107.38 61.6411 108.239 60.0961C108.49 59.6425 108.709 59.1698 108.986 58.7349C110.055 57.0751 111.052 55.3764 111.87 53.5765C112.525 52.1284 113.142 50.6649 113.663 49.1596C113.996 48.2043 113.855 47.3262 113.369 46.4733C113.012 45.8386 112.6 45.2484 112.115 44.7002C110.96 43.3956 109.623 42.2956 108.193 41.3283C106.391 40.1065 104.55 38.9345 102.68 37.823C95.5984 33.62 88.4983 29.4542 81.4067 25.2676C80.7823 24.9013 80.1652 24.5099 79.5691 24.1015C77.6505 22.7925 75.6402 21.646 73.5644 20.6113C70.9017 19.2836 68.2582 17.9232 65.6083 16.5737C65.1451 16.3385 64.6975 16.0832 64.2311 15.8536C62.0632 14.7759 59.8889 13.709 57.7242 12.6258C55.3758 11.4496 53.0375 10.2499 50.6864 9.07202C49.7569 8.60728 48.7926 8.23938 47.7558 8.06358C47.1464 7.95896 46.6898 8.11254 46.3559 8.67535C45.7784 9.65966 45.1343 10.6012 44.5606 11.5915C42.8174 14.6188 41.1069 17.6653 39.3636 20.6926C37.5676 23.8099 35.7443 26.9112 33.9374 30.0221C33.0853 31.4868 32.2524 32.9626 31.3922 34.4225C29.6772 37.3454 27.9279 40.2519 26.2238 43.1812C25.2161 44.9174 24.3784 46.7387 23.5641 48.5701C23.3085 49.1495 23.2907 49.7108 23.5175 50.28C23.6437 50.596 23.8245 50.9 24.0213 51.1767C24.5689 51.9489 25.3022 52.5294 26.0602 53.0804C29.1193 55.3005 32.411 57.1365 35.7203 58.9426C38.3025 60.3513 40.8963 61.7339 43.4885 63.1193C45.6556 64.2734 47.8306 65.414 49.9992 66.5655C51.5864 67.4087 53.1682 68.2672 54.7473 69.1241C54.9577 69.2402 55.1485 69.3961 55.3541 69.5204C55.9235 69.8618 56.1286 70.3744 56.0872 71.0135C56.0702 71.2234 56.0565 71.428 56.0342 71.6348C55.8713 73.2179 55.7057 74.7995 55.5472 76.3815C55.4963 76.8868 55.387 77.398 55.5079 78.0041C55.755 77.8265 55.9528 77.708 56.1188 77.5562C57.1579 76.6411 58.1795 75.7121 59.2251 74.8045C59.616 74.4694 60.0441 74.1708 60.474 73.8879C60.8667 73.6308 61.3225 73.5537 61.7737 73.6718C62.4727 73.8547 63.198 74.0054 63.8478 74.3097C65.6295 75.1461 67.4134 75.9913 69.1329 76.9525C72.2126 78.6751 75.2475 80.4741 78.2948 82.2584C80.1434 83.343 81.9676 84.4757 83.829 85.5385C84.9086 86.1536 86.0261 86.7103 87.1578 87.224C87.8467 87.5366 88.5894 87.7451 89.3163 87.9554C89.9987 88.1542 90.6345 87.9701 91.14 87.4897C91.6923 86.967 92.2559 86.4437 92.7141 85.8439C94.1659 83.9504 95.4703 81.9521 96.6852 79.894L96.683 79.8854Z" fill="black"/>
<path id="Vector_3" d="M119.648 46.9608C119.477 48.2388 119.114 49.4514 118.421 50.5513C118.203 50.8966 117.961 51.2091 117.494 51.4555C117.523 51.2009 117.51 51.0287 117.561 50.8791C117.777 50.2247 118.015 49.5804 118.231 48.926C118.399 48.4017 118.559 47.8726 118.688 47.34C118.945 46.2775 118.907 45.225 118.565 44.1776C118.457 43.843 118.256 43.498 118.412 43.0692C118.533 43.151 118.637 43.1863 118.69 43.2579C119.494 44.3674 119.827 45.5998 119.646 46.9635L119.648 46.9608Z" fill="black"/>
<path id="Vector_4" d="M117.221 44.7931C117.587 45.862 117.654 46.9603 117.407 48.0618C117.251 48.7654 117.047 49.4631 116.837 50.1575C116.771 50.3826 116.645 50.598 116.5 50.7881C116.438 50.8689 116.239 50.9208 116.14 50.8843C116.037 50.8463 115.909 50.6833 115.911 50.5813C115.921 50.276 115.968 49.966 116.04 49.6676C116.165 49.129 116.331 48.6031 116.462 48.0678C116.724 47.0085 116.708 45.9546 116.434 44.892C116.283 44.2938 116.204 43.6721 116.103 43.0632C116.086 42.9728 116.126 42.8748 116.18 42.5441C116.417 42.9099 116.55 43.0691 116.626 43.2527C116.84 43.7629 117.043 44.2782 117.221 44.8002L117.221 44.7931Z" fill="black"/>
<path id="Vector_5" d="M94.3006 79.5102C93.627 80.4271 92.9922 81.3778 92.3388 82.3103C92.1008 82.6472 91.8651 82.9927 91.2812 83.1632C91.3432 82.5765 91.5629 82.1959 91.8066 81.8368C92.3655 81.0028 92.9704 80.2031 93.5086 79.3607C94.2162 78.2548 94.8855 77.1264 95.5603 76.0013C96.0752 75.1488 96.5682 74.2835 97.0722 73.4246C97.3601 73.4836 97.2895 73.6914 97.2398 73.8199C96.4281 75.803 95.5809 77.7654 94.3006 79.5102Z" fill="black"/>
<path id="Vector_6" d="M92.5861 79.3215C92.0835 80.0969 91.5843 80.8853 90.7733 81.5054C90.7671 80.9226 91.0075 80.5065 91.247 80.1046C91.8108 79.1562 92.3925 78.2147 92.9792 77.2834C93.4961 76.4651 94.026 75.6618 94.5603 74.8573C94.7056 74.6347 94.8716 74.4205 95.1879 74.3936C94.9728 75.3413 94.1772 76.8721 92.5888 79.3231L92.5861 79.3215Z" fill="black"/>
<path id="Vector_7" d="M91.4354 51.4098C92.6457 53.2452 92.2639 55.2826 90.7377 56.8905C90.5972 57.0427 90.438 57.1765 90.292 57.3254C88.5366 59.1178 86.3774 59.5369 83.9958 59.1732C83.3812 59.0838 82.7825 58.9048 82.1741 58.786C81.7683 58.7092 81.3546 58.646 80.946 58.6116C80.1624 58.5477 79.4601 58.7514 78.7816 59.1706C77.5491 59.9282 76.271 60.6261 75.006 61.339C74.8307 61.4378 74.6231 61.4919 74.4252 61.548C73.972 61.6707 73.6071 61.5555 73.374 61.1219C73.1845 60.7578 72.9922 60.3921 72.7878 59.9972C73.1635 59.2757 73.6539 58.8084 74.2399 58.4155C75.5887 57.5098 76.9435 56.6187 78.4703 56.0155C80.163 55.3482 81.8749 55.1542 83.6476 55.6188C84.1488 55.7516 84.6546 55.8577 85.1579 55.9808C85.9079 56.1642 86.6604 56.1623 87.4229 56.0746C88.5012 55.9485 89.2596 55.3305 89.8886 54.5084C90.0813 54.2549 90.1674 53.9646 90.1218 53.6299C90.0031 52.6953 89.5995 51.9527 88.8357 51.3616C87.5802 50.3904 86.1847 50.2826 84.704 50.5574C84.4328 50.6072 84.1691 50.6944 83.8941 50.7383C83.4258 50.8118 83.0939 50.584 82.8528 50.208C82.6297 49.8572 82.6666 49.4133 82.989 49.0637C83.3377 48.6818 83.7184 48.3078 84.2586 48.2179C84.938 48.1033 85.6228 47.9481 86.3064 47.9387C88.3654 47.9152 89.8172 49.0016 90.9564 50.6083C91.1351 50.8597 91.2659 51.1491 91.4327 51.4082L91.4354 51.4098Z" fill="black"/>
<path id="Vector_8" d="M72.1269 62.9412C71.8894 63.3773 71.5713 63.7258 71.1317 63.9627C70.8907 64.0925 70.6489 64.2109 70.4186 64.3286C69.9483 64.3056 69.6423 64.0088 69.3376 63.7347C69.064 63.4825 69.008 63.1345 69.0273 62.7829C69.0539 62.1754 69.6599 61.3801 70.2606 61.2744C70.6536 61.2044 71.0944 61.2028 71.4819 61.2982C72.2303 61.4844 72.5003 62.2549 72.1253 62.9439L72.1269 62.9412Z" fill="black"/>
<path id="Vector_9" d="M77.5673 45.9852C77.3003 46.7962 76.7861 47.4291 76.1693 48.0056C75.1367 48.9721 73.9653 49.663 72.5798 49.9753C72.0058 50.104 71.4363 50.25 70.8702 50.409C69.6959 50.7426 68.7879 51.3718 68.1646 52.4905C67.5119 53.6653 66.6913 54.7452 65.9433 55.864C65.8866 55.9481 65.824 56.036 65.7526 56.1077C65.2491 56.6223 64.9074 56.6674 64.2963 56.2722C63.9799 56.0682 63.6928 55.8265 63.4257 55.6258C63.3881 54.834 63.6064 54.1997 63.9554 53.5798C64.8412 52.014 65.7264 50.4552 67.0025 49.155C68.0396 48.0994 69.2174 47.2914 70.6817 46.9447C71.3541 46.7857 72.0192 46.6079 72.6932 46.4462C73.3742 46.285 73.9871 45.9775 74.5761 45.6047C75.5299 45.0098 75.9689 44.1054 76.177 43.051C76.2478 42.693 76.1585 42.3767 75.9565 42.0713C75.468 41.3485 74.8276 40.9031 73.9636 40.7077C72.3748 40.3546 71.0401 40.8617 69.8077 41.8063C69.5585 41.9936 69.3302 42.2079 69.0776 42.3822C68.6812 42.6518 68.2878 42.5602 67.9221 42.309C67.5602 42.0637 67.4715 41.6964 67.5701 41.3034C67.6985 40.8034 67.8679 40.3273 68.2894 39.9588C68.8684 39.4592 69.4712 39.0065 70.1674 38.682C72.0365 37.814 73.8005 38.1746 75.5125 39.1424C75.7824 39.3008 76.032 39.4876 76.2992 39.6444C78.1288 40.7178 78.601 42.7616 78.0618 44.6114C77.9287 45.0757 77.7248 45.5169 77.5693 45.9755L77.5673 45.9852Z" fill="black"/>
<path id="Vector_10" d="M63.8498 59.7634C63.6823 59.9364 63.6055 60.0049 63.5434 60.0858C63.065 60.7324 62.9213 60.7837 62.1768 60.5595C61.5906 60.3841 61.2177 59.9454 61.1742 59.3884C61.099 58.3547 61.8105 57.4856 62.8346 57.3644C63.6188 57.2711 64.1932 57.7914 64.112 58.5794C64.0686 59.0157 63.9237 59.4439 63.8514 59.7607L63.8498 59.7634Z" fill="black"/>
<path id="Vector_11" d="M53.8945 54.5417C53.822 54.8401 53.7289 55.13 53.6513 55.3996C53.324 55.6951 52.9398 55.7189 52.5595 55.7487C52.1082 55.7808 51.7608 55.5733 51.4847 55.2317C50.7146 54.2704 51.367 52.5713 52.5838 52.3652C53.0839 52.2812 53.5696 52.5404 53.7515 53.0174C53.9396 53.5089 54.0173 54.02 53.8945 54.5417Z" fill="black"/>
<path id="Vector_12" d="M54.3791 50.5047C54.0671 51.0364 53.9117 51.1139 53.2751 50.9932C52.9046 50.9188 52.5451 50.8068 52.1554 50.7028C51.8563 50.0068 51.8189 49.4021 51.9109 48.7707C52.1897 46.8524 52.5283 44.9509 53.3534 43.1698C53.9167 41.9536 54.6878 40.9143 55.7884 40.1379C56.3538 39.7366 56.9291 39.3557 57.5071 38.9765C58.118 38.5725 58.6238 38.0666 59.0953 37.5003C59.8461 36.5956 59.9422 35.5634 59.7775 34.4698C59.6916 33.8916 59.2774 33.5606 58.8062 33.3391C58.1743 33.0417 57.5124 32.9392 56.7924 33.0482C55.218 33.2827 54.1868 34.2281 53.3642 35.4864C53.2125 35.72 53.0843 35.9636 52.938 36.2003C52.6887 36.6002 52.3143 36.7324 51.8683 36.643C51.4066 36.5553 51.1185 36.203 51.0781 35.6845C51.0417 35.2343 51.0579 34.782 51.2713 34.3684C52.287 32.406 53.735 31.0564 56.0689 30.9267C57.2637 30.858 58.405 31.0805 59.5236 31.4729C60.4969 31.8131 61.1361 32.529 61.5813 33.4133C61.9268 34.0925 62.1281 34.8301 62.0941 35.6128C62.0855 35.7836 62.0893 35.9582 62.0975 36.1316C62.2071 38.5123 61.0964 40.3054 59.3498 41.7767C58.8767 42.1771 58.3354 42.4936 57.8266 42.8549C57.5412 43.0539 57.2574 43.2503 56.9906 43.4676C56.2198 44.1003 55.7346 44.8712 55.5581 45.8965C55.3202 47.289 54.9253 48.6554 54.588 50.0299C54.5485 50.1973 54.4643 50.3532 54.378 50.5004L54.3791 50.5047Z" fill="black"/>
<path id="Vector_13" d="M45.8836 21.5492C45.4445 22.3288 44.9782 23.0925 44.423 24.0386C44.3297 23.4231 44.4367 23.0533 44.5509 22.7025C44.7983 21.9497 45.0369 21.1807 45.3889 20.4746C46.2695 18.7114 47.2034 16.976 48.132 15.2373C48.2922 14.9391 48.525 14.6798 48.7436 14.4196C48.7913 14.3633 48.9511 14.3471 49.0225 14.3816C49.0907 14.4216 49.1679 14.5586 49.1507 14.6255C49.0524 14.9929 48.9568 15.362 48.8116 15.7094C47.9682 17.7215 46.9505 19.6498 45.8809 21.5476L45.8836 21.5492Z" fill="black"/>
<path id="Vector_14" d="M44.6329 20.3573C44.3119 20.9607 43.9883 21.5808 43.3373 22.0345C43.2854 21.8355 43.1862 21.6673 43.2168 21.5277C43.319 21.0599 43.4042 20.5711 43.6028 20.1451C44.4741 18.2666 45.4347 16.4295 46.578 14.6995C46.8821 14.2438 47.2636 13.8372 47.6271 13.4238C47.7547 13.275 47.949 13.1875 48.2581 13.2479C48.1793 13.4509 48.1282 13.6005 48.058 13.7389C47.8123 14.2325 47.5612 14.7229 47.3085 15.2161C46.4199 16.9305 45.5395 18.6498 44.6329 20.3573Z" fill="black"/>
<path id="Vector_15" d="M21.6315 44.3611C20.6507 46.4576 20.1636 48.6495 20.3789 50.975C20.4052 51.28 20.4425 51.5914 20.2531 51.8578C20.0043 51.9758 19.8314 51.8706 19.7152 51.6815C19.4722 51.2897 19.4099 50.8463 19.3892 50.3943C19.3466 49.4236 19.4575 48.4661 19.6695 47.5239C19.9321 46.3768 20.3649 45.2893 20.9066 44.2473C21.0349 44.0037 21.1932 43.7776 21.3623 43.558C21.508 43.3723 21.6843 43.2155 21.8485 43.0479C21.9892 43.5703 21.8153 43.9667 21.6315 44.3611Z" fill="black"/>
<path id="Vector_16" d="M19.3161 45.4215C19.1211 46.26 18.8766 47.0952 18.7586 47.9459C18.6392 48.8179 18.6415 49.7135 18.586 50.6889C18.3953 50.5954 18.2497 50.5686 18.1762 50.4815C17.8788 50.1201 17.7602 49.6913 17.7828 49.228C17.8545 47.694 18.1495 46.2104 18.7945 44.8112C19.1126 44.1255 19.4572 43.4444 20.01 42.8707C19.9413 43.7687 19.5138 44.5661 19.3145 45.4242L19.3161 45.4215Z" fill="black"/>
</g>
</g>
<defs>
<clipPath id="clip0_23_455">
<rect width="88.8989" height="88.9494" fill="white" transform="translate(45.0134) rotate(30.4015)"/>
</clipPath>
</defs>
</svg>
