<svg width="127" height="146" viewBox="0 0 127 146" fill="none" xmlns="http://www.w3.org/2000/svg">
<g id="Objects" clip-path="url(#clip0_30_648)">
<path id="Vector" d="M90.7607 113.438C91.4963 114.555 91.7564 115.843 91.7718 117.153C91.7961 119.464 91.3179 121.669 90.1806 123.697C90.0489 123.937 89.894 124.172 89.7063 124.37C88.7775 125.348 87.7279 126.179 86.4878 126.914C85.5204 127.358 84.4368 127.751 83.2846 127.915C81.9442 128.104 80.7059 127.756 79.5802 127.039C78.1363 126.122 77.0464 124.916 76.3875 123.293C75.7412 121.702 75.5382 120.074 75.6267 118.387C75.6657 117.585 75.929 116.847 76.2726 116.134C77.1322 114.34 78.4094 112.901 80.0195 111.76C81.1527 110.952 82.3582 110.277 83.6658 109.785C84.7162 109.393 85.7207 109.486 86.7623 109.906C88.5229 110.615 89.758 111.903 90.7607 113.438Z" fill="#FBBC08"/>
<path id="Vector_2" d="M43.4069 26.9533C43.029 27.22 42.6686 27.5111 42.2907 27.7778C39.8337 29.5014 37.8778 31.7032 36.2126 34.1796C36.0874 34.361 35.8276 34.5346 36.0353 34.8581C36.7789 33.9974 37.4709 33.1348 38.2243 32.3238C38.9777 31.5127 39.7324 30.6883 40.5854 29.9842C41.7244 29.046 42.9583 28.2214 44.1421 27.3351C44.5081 27.0621 44.8515 26.7548 45.4007 26.2987C44.43 26.3309 43.9048 26.605 43.4069 26.9533ZM42.816 26.1599C43.1843 25.9068 43.5821 25.6928 43.7109 25.1586C43.5258 25.1272 43.3758 25.0516 43.2709 25.0911C42.0916 25.5483 41.1208 26.3538 40.1384 27.1064C39.1865 27.8299 38.2165 28.5589 37.5307 29.5659C37.4183 29.7321 37.3941 29.9606 37.2611 30.3618C37.9436 29.7706 38.4322 29.2879 38.9798 28.8834C40.2418 27.955 41.5298 27.0591 42.816 26.1599ZM69.2831 96.1522C69.3765 96.271 69.5749 96.3037 69.9638 96.4874C68.2444 93.128 66.5316 90.0777 64.3156 87.2645C64.3133 88.0728 64.3198 88.0692 64.6315 88.586C65.9531 90.7608 67.2733 92.9407 68.5949 95.1155C68.8102 95.4686 69.029 95.8284 69.2831 96.1522ZM66.2808 92.6043C65.3732 91.0349 64.3924 89.5091 63.4377 87.9692C63.3433 87.8172 63.2047 87.6847 62.9591 87.8845C63.0695 88.1209 63.1688 88.3759 63.3026 88.6166C64.6183 91.0228 65.9276 93.4324 67.2695 95.8245C67.676 96.5565 68.1589 97.2431 68.6322 97.9349C68.8043 98.1846 69.0039 98.4617 69.5317 98.3721C69.468 98.1443 69.4662 97.9847 69.3917 97.8854C68.1258 96.2595 67.3042 94.3733 66.2808 92.6043ZM75.301 27.0306C77.4297 30.6895 78.3439 34.6934 78.8527 38.8268C79.0201 40.1692 78.9123 41.5159 78.7513 42.8575C78.3116 46.5252 77.3804 50.0686 75.9013 53.4378C74.4453 56.7482 72.8462 59.996 71.3143 63.2669C70.9789 63.9798 70.6185 64.685 70.3319 65.4181C69.546 67.4424 69.2998 69.5398 69.5683 71.7108C69.8712 74.1803 70.5533 76.526 71.6268 78.771C72.4105 80.4071 73.1435 82.0662 73.8961 83.7148C75.3037 86.8151 77.0013 89.7511 78.8147 92.6288C80.1284 94.7107 81.4634 96.7854 82.489 99.035C83.0493 100.272 83.0312 100.277 81.9454 101.064C79.6228 102.741 77.3005 104.426 74.9746 106.104C73.341 107.287 73.1658 107.305 71.9339 105.758C70.8646 104.42 69.8481 103.023 68.9084 101.589C66.2921 97.618 64.1336 93.3879 61.9833 89.1575C60.279 85.8027 58.7 82.3762 57.5779 78.7672C57.0398 77.0328 56.5825 75.2844 56.4396 73.4641C56.3194 71.9358 56.5718 70.4985 57.3017 69.1593C57.6775 68.4669 58.0583 67.776 58.4781 67.1107C59.5637 65.3856 60.6494 63.6606 61.7825 61.9691C63.2877 59.7267 64.5587 57.3695 65.4922 54.8305C65.9054 53.6997 66.3301 52.5669 66.7483 51.4376C67.6764 48.9353 68.1188 46.3352 68.3241 43.6852C68.5442 40.8752 67.9176 38.2419 66.6371 35.7449C65.7649 34.0382 64.745 32.432 63.4559 31.0129C63.2376 30.7713 63.0255 30.5178 62.7768 30.3135C58.126 26.4992 53.0181 24.9843 47.2702 27.4054C44.1614 28.7149 41.5387 30.7558 39.3244 33.329C35.9318 37.2674 33.3146 41.6547 31.6101 46.5818C30.9878 48.3787 30.4074 50.191 29.8185 51.9953C29.1919 53.917 28.9381 55.8832 29.1222 57.9053C29.1392 58.1244 29.1281 58.3458 29.1334 58.6683C28.6925 58.6225 28.3343 58.6209 27.9885 58.5408C25.7701 58.0358 23.6219 57.2861 21.5256 56.3986C20.7573 56.0726 19.9923 55.7448 19.2004 55.4061C18.9014 54.9754 18.9211 54.4494 18.8918 53.9496C18.7132 50.547 18.8785 47.1664 19.541 43.8268C19.6835 43.0994 19.9564 42.4032 20.1808 41.6951C20.7292 39.9718 21.2389 38.2313 21.8562 36.5343C22.2374 35.4926 22.7409 34.4906 23.2786 33.521C24.9419 30.5175 26.7317 27.5852 29.0922 25.0728C32.3169 21.6347 35.9718 18.7383 40.2904 16.7863C43.8244 15.1889 47.5499 14.3926 51.4485 14.2385C56.8078 14.0251 61.7551 15.4447 66.3505 18.0466C70.1253 20.1859 73.0935 23.2409 75.301 27.0306Z" fill="#FBBC08"/>
<path id="Vector_3" d="M82.7938 27.258C83.5365 29.0133 84.2416 30.7846 84.5987 32.6672C84.8565 34.0369 85.0862 35.4092 85.2928 36.7854C85.3636 37.2374 85.3622 37.7114 85.3088 38.1669C85.2814 38.3972 85.0709 38.6076 84.8429 38.9965C84.451 37.9947 84.4559 37.1131 84.3012 36.271C84.1408 35.4024 84.0347 34.5256 83.8677 33.6605C83.6959 32.7473 83.5092 31.8379 83.2716 30.9432C83.0469 30.088 82.7615 29.2529 82.4826 28.4142C82.2074 27.5904 81.906 26.7723 81.5668 25.8139C82.3155 26.1505 82.5676 26.7205 82.7938 27.258Z" fill="black"/>
<path id="Vector_4" d="M83.0192 40.4595C82.4966 40.1915 82.6153 39.6543 82.6249 39.2266C82.7133 35.6719 81.5882 32.3857 80.4202 29.1056C79.9229 27.7126 79.3468 26.3451 78.8134 24.9631C78.7483 24.7953 78.7061 24.6152 78.6558 24.4437L78.8649 24.2931C79.0123 24.442 79.2005 24.5731 79.2975 24.7533C79.8459 25.7724 80.4434 26.7734 80.9067 27.8297C81.7978 29.8686 82.5284 31.9685 83.067 34.1337C83.4787 35.8051 83.7087 37.4983 83.5733 39.2233C83.4952 40.2034 83.2991 40.6047 83.0192 40.4595Z" fill="black"/>
<path id="Vector_5" d="M94.4919 106.245C97.2644 108.624 98.5962 111.685 98.7235 115.297C98.7518 116.076 98.6774 116.188 98.1654 117.08C98.0643 116.822 97.9457 116.641 97.9213 116.447C97.8266 115.615 97.8015 114.779 97.6722 113.953C97.2458 111.199 95.9625 108.877 94.0495 106.877C93.672 106.48 93.2959 106.078 92.9217 105.679C93.6116 105.578 94.0726 105.888 94.4919 106.245Z" fill="black"/>
<path id="Vector_6" d="M96.0485 115.6C95.6093 113.275 94.5058 111.233 93.3531 109.208C92.9965 108.584 92.4279 108.176 91.8403 107.795C91.4626 107.546 91.08 107.304 90.699 107.057C90.7393 106.968 90.7795 106.878 90.8165 106.791C92.2578 106.953 93.4475 107.648 94.2422 108.852C95.525 110.798 96.6027 112.863 97.0206 115.195C97.1175 115.734 97.1039 116.295 97.0901 116.848C97.0861 116.981 96.8972 117.192 96.7637 117.218C96.6518 117.244 96.4142 117.076 96.3721 116.951C96.2287 116.513 96.1345 116.056 96.0485 115.6Z" fill="black"/>
<path id="Vector_7" d="M42.816 26.1599C41.5298 27.0591 40.2418 27.955 38.9798 28.8834C38.4322 29.2879 37.9436 29.7706 37.2611 30.3618C37.3942 29.9606 37.4183 29.7321 37.5308 29.5659C38.2165 28.5589 39.1865 27.8299 40.1384 27.1064C41.1208 26.3538 42.0917 25.5483 43.271 25.0911C43.3758 25.0516 43.5258 25.1272 43.7109 25.1586C43.5821 25.6928 43.1843 25.9068 42.816 26.1599Z" fill="black"/>
<path id="Vector_8" d="M45.4007 26.2987C44.8515 26.7548 44.5082 27.0621 44.1421 27.3351C42.9583 28.2214 41.7245 29.046 40.5854 29.9842C39.7324 30.6883 38.9778 31.5127 38.2244 32.3238C37.471 33.1348 36.7789 33.9974 36.0354 34.8581C35.8277 34.5346 36.0875 34.361 36.2126 34.1796C37.8778 31.7032 39.8337 29.5014 42.2908 27.7778C42.6686 27.5111 43.0291 27.22 43.4069 26.9533C43.9048 26.605 44.43 26.3309 45.4007 26.2987Z" fill="black"/>
<path id="Vector_9" d="M64.3156 87.2644C66.5316 90.0777 68.2444 93.128 69.9638 96.4874C69.5749 96.3037 69.3765 96.271 69.2831 96.1522C69.029 95.8284 68.8102 95.4686 68.5949 95.1155C67.2733 92.9407 65.9531 90.7608 64.6315 88.586C64.3198 88.0692 64.3133 88.0727 64.3156 87.2644Z" fill="black"/>
<path id="Vector_10" d="M63.4378 87.9692C64.3925 89.5091 65.3733 91.0348 66.2809 92.6043C67.3043 94.3733 68.1258 96.2595 69.3918 97.8854C69.4663 97.9847 69.4681 98.1443 69.5317 98.3721C69.004 98.4617 68.8044 98.1846 68.6322 97.9349C68.159 97.2431 67.676 96.5565 67.2695 95.8245C65.9277 93.4324 64.6184 91.0227 63.3026 88.6166C63.1721 88.3741 63.0695 88.1209 62.9591 87.8845C63.2048 87.6847 63.3433 87.8172 63.4378 87.9692Z" fill="black"/>
<path id="Vector_11" d="M80.5939 129.641C80.5876 129.755 80.5818 129.885 80.5738 130.049C81.3128 130.188 82.0133 130.107 82.7318 129.708C82.1029 129.641 81.4721 129.57 80.8402 129.513C80.7704 129.508 80.6917 129.589 80.5939 129.641ZM75.8203 128.052C76.0757 127.59 76.2904 127.199 76.5206 126.775C76.0077 126.033 75.5224 125.327 75.0165 124.597C74.4927 124.968 74.2528 125.452 73.8917 126.086C74.5131 126.795 74.8834 127.64 75.8203 128.052ZM77.1885 127.54C76.9907 127.993 76.8163 128.395 76.5908 128.914C77.5555 129.472 78.3598 129.99 79.4661 129.999C79.533 129.655 79.5954 129.325 79.6506 129.029C79.1638 128.742 78.7685 128.515 78.386 128.273C78.0121 128.039 77.7262 127.656 77.1885 127.54ZM73.8774 121.496C73.4391 121.893 73.0306 122.188 73.0081 122.78C72.9817 123.559 73.1342 124.178 73.5684 124.688C73.916 124.256 74.2574 123.835 74.6657 123.328C74.2603 122.786 74.4823 122.003 73.8774 121.496ZM73.0572 120.792C73.7445 120.452 74.0134 120.046 73.9783 119.418C73.9504 118.96 74.0103 118.501 74.0072 118.042C74.0077 117.902 74.1245 117.666 73.7329 117.657C73.3603 118.605 72.9265 119.557 73.0572 120.792ZM91.3096 111.262C92.7272 112.912 93.4406 114.84 93.4835 117.005C93.5337 119.404 93.0426 121.726 92.2652 123.961C91.8614 125.125 91.1122 126.17 90.5003 127.26C90.3923 127.458 90.2289 127.639 90.0562 127.786C88.1806 129.387 86.2164 130.863 83.7872 131.489C82.2593 131.885 80.6729 131.953 79.1072 131.684C76.5342 131.239 74.6347 129.764 73.1854 127.641C72.952 127.293 72.7513 126.928 72.5325 126.568C71.8865 125.555 71.6432 124.431 71.5823 123.255C71.5483 122.606 71.5524 121.957 71.5432 121.307C71.5097 118.659 72.4757 116.407 74.3135 114.556C75.8831 112.98 77.6354 111.619 79.5526 110.486C80.4689 109.946 81.4081 109.449 82.3209 108.903C83.2989 108.322 84.3648 108.053 85.4714 107.914C85.6961 107.886 85.9443 107.87 86.16 107.927C87.5038 108.307 88.8126 108.786 89.8637 109.763C90.3696 110.234 90.8583 110.736 91.3096 111.262ZM91.7719 117.153C91.7565 115.843 91.4963 114.555 90.7608 113.438C89.7581 111.903 88.5229 110.615 86.7624 109.906C85.7208 109.486 84.7162 109.393 83.6658 109.785C82.3583 110.277 81.1528 110.952 80.0195 111.76C78.4094 112.901 77.1322 114.34 76.2727 116.134C75.929 116.847 75.6658 117.585 75.6268 118.387C75.5382 120.074 75.7412 121.702 76.3875 123.293C77.0464 124.916 78.1364 126.122 79.5802 127.039C80.7059 127.756 81.9442 128.104 83.2847 127.915C84.4369 127.751 85.5204 127.358 86.4879 126.914C87.7279 126.179 88.7775 125.348 89.7063 124.37C89.894 124.172 90.049 123.937 90.1806 123.697C91.3179 121.669 91.7962 119.464 91.7719 117.153Z" fill="black"/>
<path id="Vector_12" d="M49.7015 74.2716C50.3862 72.5045 51.0183 70.7024 52.0396 69.0922C53.3751 66.9876 54.785 64.9275 56.1677 62.8482C56.2849 62.6753 56.4375 62.5214 56.5732 62.3596L56.7052 62.4407C56.5864 62.7201 56.4896 63.0088 56.3439 63.2773C55.587 64.6523 54.8844 66.0656 54.0413 67.3897C52.6678 69.5486 51.6123 71.8532 50.6835 74.2291C50.55 74.5671 50.3832 74.8977 50.1925 75.2074C50.1484 75.2818 49.9511 75.2824 49.8296 75.2675C49.7613 75.2578 49.6534 75.151 49.6545 75.0828C49.6475 74.8119 49.608 74.512 49.7015 74.2716Z" fill="black"/>
<path id="Vector_13" d="M48.5046 74.0241C48.4981 73.6135 48.5008 73.181 48.6211 72.7952C49.2911 70.5712 50.245 68.4607 51.3796 66.4515C52.0324 65.2974 53.0553 64.4089 54.0546 63.5078C54.105 64.1483 53.7696 64.6034 53.4415 65.025C51.6025 67.4048 50.6257 70.1995 49.5733 72.963C49.4282 73.3496 49.2916 73.7443 49.1364 74.1278C49.0856 74.2523 48.9844 74.3532 48.9083 74.4618C48.5692 74.4879 48.5042 74.2187 48.5046 74.0241Z" fill="black"/>
<path id="Vector_14" d="M62.9294 33.4724C62.7842 34.1167 62.6463 34.7276 62.5056 35.3568C63.3481 35.9303 64.145 36.4268 64.9813 36.8557C65.0584 36.7804 65.1341 36.7101 65.208 36.6365C64.9101 36.0827 64.6234 35.5187 64.3106 34.9687C63.7729 34.0241 63.7045 33.9595 62.9294 33.4724ZM58.6123 33.6067C58.7435 32.3191 58.883 31.0313 59.0208 29.7403C58.0052 29.2516 57.1019 28.6981 56.0117 28.5707C56.0698 31.5226 56.2132 32.9455 56.5638 33.9019C57.1557 34.0017 57.781 34.1089 58.5647 34.2449C58.5826 33.9734 58.5933 33.7901 58.6123 33.6067ZM61.363 35.0463C61.7855 34.0499 62.0215 33.0821 62.1972 32.0959C61.4942 31.3756 60.8703 30.6381 59.749 30.2654C59.7996 31.7424 59.4895 33.0882 59.5669 34.5212C60.1795 34.6986 60.7454 34.8673 61.363 35.0463ZM50.9709 28.0634C51.315 29.6952 51.6361 31.2295 51.9572 32.7638C52.0139 33.0333 52.0807 33.3058 52.1605 33.5713C52.1848 33.6554 52.26 33.7248 52.3833 33.8993C53.3858 33.8247 54.3371 33.7564 55.3364 33.6835C55.2549 31.8132 55.3084 30.014 55.0156 28.1729C53.6624 27.8067 52.3538 27.8517 50.9709 28.0634ZM51.1263 34.1574C50.9823 31.9912 50.4318 29.3507 49.9062 28.3194C48.6678 28.5886 47.4587 28.9434 46.4167 29.8042C46.6833 30.7762 47.1189 31.6404 47.5202 32.5189C47.9093 33.3828 47.985 34.3984 48.7163 35.1246C49.5283 34.7975 50.293 34.4917 51.1263 34.1574ZM81.3594 103.788C81.507 104.203 81.6397 104.567 81.833 105.114C82.5812 104.504 82.4991 103.906 82.4157 103.22L81.3594 103.788ZM47.5081 35.8171C46.8946 33.2316 46.0798 31.1939 45.3192 30.3821C44.1494 31.0834 42.9989 31.8208 42.1338 32.8695C42.1622 33.0316 42.1538 33.1333 42.1944 33.2087C42.955 34.591 43.7222 35.9697 44.4893 37.3485C44.5334 37.4304 44.5873 37.5071 44.6459 37.577C44.6768 37.611 44.7205 37.6297 44.7628 37.6535C44.8 37.6757 44.8437 37.6945 44.9464 37.7448C45.8472 37.1841 46.713 36.5195 47.5081 35.8171ZM40.6305 38.5376C41.1556 39.1931 41.3772 40.1049 42.2403 40.5447C42.8383 39.8511 43.5156 39.3049 43.9847 38.575C43.1322 36.9126 42.5506 35.1677 41.3709 33.5926C40.4603 34.5179 39.6977 35.4057 39.0103 36.4643C39.6087 37.2325 40.1107 37.892 40.6305 38.5376ZM75.6887 107.947C75.7053 108.001 75.8435 108.07 75.9128 108.058C76.5555 107.932 77.1268 107.65 77.5469 107.149C77.6411 107.035 77.5545 106.765 77.547 106.478C76.811 106.798 76.1985 107.089 75.7101 107.58C75.6427 107.65 75.6601 107.831 75.6887 107.947ZM78.6408 105.682C78.3106 105.936 78.3288 105.985 78.6933 106.647C79.4322 106.418 80.1534 106.157 80.7501 105.578C80.6945 105.24 80.643 104.926 80.5851 104.568C79.8025 104.778 79.2184 105.232 78.6408 105.682ZM74.8445 108.409C74.4345 108.085 74.1269 108.318 73.8486 108.535C73.6721 108.668 73.5646 108.883 73.7993 109.17C74.2714 109.102 74.7125 109 74.8445 108.409ZM69.2211 108.452C69.6465 107.86 69.9978 107.388 70.1644 106.736C69.757 106.237 69.3515 105.741 68.9476 105.248C68.2573 105.802 68.2641 105.806 67.8779 106.745C68.1963 107.313 68.5483 107.897 69.2211 108.452ZM36.2814 40.5737C37.3265 41.8283 38.3318 43.0324 39.4594 44.3778C40.1315 43.4077 40.7068 42.5784 41.2769 41.7392C41.3198 41.6781 41.2912 41.5625 41.2965 41.4709C39.9866 39.0912 39.1168 37.8733 38.2914 37.316C37.5487 38.3579 36.7635 39.3678 36.2814 40.5737ZM54.4484 79.0146C54.6276 78.8632 54.8141 78.7333 54.9682 78.5743C55.0918 78.4444 55.1826 78.2772 55.3078 78.0958C55.1211 77.3427 54.9345 76.5896 54.6794 75.5606C54.0475 77.2148 54.0015 78.1607 54.4484 79.0146ZM62.925 95.5721C62.4078 96.0954 61.9459 96.6356 61.6957 97.366C62.336 98.7201 63.1288 99.9668 64.112 101.31C64.5961 100.631 64.9659 100.115 65.3057 99.6446C64.4599 97.7758 63.6246 96.3407 62.925 95.5721ZM55.4937 79.293C55.097 79.6966 54.7517 80.0472 54.4192 80.3824C54.5732 81.2545 54.595 82.0921 55.1199 83.0519C55.5881 82.3436 56.1146 81.9547 56.378 81.327C56.0718 80.672 56.0589 79.9057 55.4937 79.293ZM35.865 41.4485C35.0665 42.457 34.4633 43.7112 34.2306 44.8337C35.2233 46.0066 36.2334 47.2039 37.3504 48.5296C37.9843 47.4026 38.511 46.4516 38.8872 45.4083C37.9289 44.0182 36.9904 42.6725 35.865 41.4485ZM56.9953 87.5528C57.5708 87.0909 57.8318 86.4899 58.2357 85.8965C57.8746 85.0302 57.5629 84.2557 57.2284 83.4934C57.1463 83.3094 56.9791 83.1628 56.8148 82.9512C56.2615 83.3841 55.8432 83.7867 55.5479 84.402C56.0003 85.4303 56.2702 86.557 56.9953 87.5528ZM60.5795 90.8383C59.8926 91.0854 59.7942 91.7384 59.4812 92.2194C59.2599 92.5582 59.2809 92.9019 59.4731 93.2591C59.894 94.0256 60.2887 94.8061 60.7096 95.5726C60.8084 95.7561 60.956 95.9133 61.145 96.1707C61.3907 95.8695 61.5719 95.6748 61.7158 95.4579C61.9674 95.0817 62.1937 94.6895 62.438 94.2919L60.5795 90.8383ZM70.7707 107.597C70.4241 108.219 70.0997 108.757 69.9562 109.35C70.1448 109.802 70.3598 110.146 70.8765 110.177C71.3782 109.687 71.6552 109.069 71.8856 108.341C71.5315 108.105 71.1927 107.881 70.7707 107.597ZM58.789 91.5736C59.3387 90.9778 59.7192 90.3801 60.0257 89.6996C59.8246 89.2712 59.6468 88.8471 59.4267 88.4459C59.201 88.0264 59.1227 87.4981 58.5959 87.152C58.2085 87.7915 57.706 88.2563 57.4469 88.9154C57.8715 89.7983 58.1939 90.7022 58.789 91.5736ZM36.8909 49.5586C35.8187 48.3397 35.0239 46.9252 33.8052 45.7386C33.1828 46.8088 32.9084 47.9241 32.4629 49.0807C33.0218 49.8068 33.498 50.4886 34.0339 51.1172C34.5918 51.7634 34.8575 52.6557 35.7454 53.1962C36.1368 51.9546 36.504 50.7852 36.8909 49.5586ZM35.3901 54.6846C34.8465 53.9166 34.3604 53.1851 33.8292 52.4949C33.2824 51.7835 33.0204 50.8512 32.1478 50.2686C31.6534 51.4516 31.3316 52.5882 31.085 53.7941C31.6653 54.4664 32.2386 55.1255 32.8072 55.7914C33.3687 56.4442 33.7267 57.2657 34.458 57.8356C34.5594 57.6881 34.6722 57.5851 34.7016 57.4679C34.9451 56.5298 35.1704 55.5888 35.3901 54.6846ZM31.1079 54.9227C30.9872 54.9876 30.9197 55.0028 30.914 55.0313C30.6105 56.1706 30.5654 57.2978 31.0735 58.4061C31.7263 59.838 32.4119 61.2606 32.7009 62.8291C32.7308 62.9862 32.8712 63.122 33.0673 63.4474C33.4118 62.6578 33.4126 61.956 33.5891 61.3074C33.7804 60.6003 33.9631 59.885 34.1566 59.1429C33.1034 57.7405 32.3332 56.1606 31.1079 54.9227ZM19.541 43.8268C18.8785 47.1664 18.7132 50.5471 18.8918 53.9496C18.9211 54.4494 18.9014 54.9754 19.2004 55.4061C19.9923 55.7448 20.7573 56.0726 21.5256 56.3986C23.6219 57.2861 25.7701 58.0358 27.9885 58.5408C28.3343 58.6209 28.6925 58.6225 29.1334 58.6683C29.1281 58.3458 29.1392 58.1244 29.1223 57.9053C28.9381 55.8832 29.1919 53.9171 29.8185 51.9953C30.4074 50.191 30.9878 48.3787 31.6102 46.5818C33.3146 41.6547 35.9318 37.2674 39.3245 33.329C41.5387 30.7558 44.1614 28.7149 47.2702 27.4054C53.0181 24.9843 58.126 26.4992 62.7768 30.3135C63.0255 30.5178 63.2376 30.7713 63.4559 31.013C64.7451 32.432 65.7649 34.0382 66.6371 35.7449C67.9177 38.2419 68.5442 40.8752 68.3241 43.6852C68.1188 46.3352 67.6764 48.9353 66.7483 51.4376C66.3301 52.5669 65.9054 53.6997 65.4923 54.8305C64.5587 57.3695 63.2877 59.7267 61.7825 61.9691C60.6494 63.6606 59.5637 65.3856 58.4781 67.1107C58.0583 67.776 57.6775 68.4669 57.3017 69.1593C56.5718 70.4985 56.3194 71.9358 56.4396 73.4641C56.5825 75.2844 57.0398 77.0328 57.5779 78.7672C58.7 82.3762 60.279 85.8027 61.9833 89.1575C64.1336 93.3879 66.2922 97.618 68.9084 101.589C69.8481 103.023 70.8646 104.42 71.9339 105.758C73.1658 107.305 73.341 107.287 74.9746 106.104C77.3005 104.426 79.6228 102.741 81.9454 101.064C83.0312 100.277 83.0493 100.272 82.489 99.035C81.4635 96.7854 80.1284 94.7107 78.8148 92.6288C77.0013 89.7511 75.3037 86.8151 73.8961 83.7148C73.1435 82.0662 72.4105 80.407 71.6268 78.771C70.5533 76.526 69.8712 74.1803 69.5683 71.7108C69.2998 69.5398 69.546 67.4424 70.3319 65.4181C70.6185 64.685 70.979 63.9797 71.3143 63.2669C72.8463 59.996 74.4453 56.7482 75.9013 53.4378C77.3804 50.0686 78.3116 46.5252 78.7513 42.8575C78.9123 41.5159 79.0201 40.1692 78.8527 38.8268C78.3439 34.6934 77.4297 30.6895 75.301 27.0306C73.0936 23.2409 70.1253 20.1859 66.3505 18.0466C61.7551 15.4447 56.8078 14.0251 51.4485 14.2385C47.5499 14.3926 43.8244 15.1889 40.2904 16.7863C35.9718 18.7383 32.3169 21.6347 29.0922 25.0728C26.7317 27.5852 24.9419 30.5175 23.2786 33.521C22.7409 34.4906 22.2374 35.4926 21.8562 36.5343C21.2389 38.2313 20.7292 39.9718 20.1808 41.6951C19.9564 42.4032 19.6835 43.0994 19.541 43.8268ZM23.2646 61.9743C23.1947 60.8288 23.0725 59.703 22.8369 58.5621C21.9556 58.0729 21.1412 57.497 20.0011 57.519C20.3679 58.8259 20.9829 59.9062 21.5244 61.0219C21.8691 61.7407 22.3866 62.0538 23.2646 61.9743ZM17.4253 49.5288C18.0086 46.05 18.6322 42.5834 19.6079 39.185C20.3284 36.6719 21.3448 34.2869 22.6169 32.0178C24.4351 28.7788 26.4212 25.6565 29.0933 23.0355C31.3777 20.7879 33.7952 18.7095 36.5464 17.0559C40.6559 14.5825 45.1039 13.0975 49.8992 12.7735C51.7441 12.647 53.6056 12.6763 55.4492 12.766C58.0717 12.897 60.537 13.7592 62.9877 14.6335C67.9025 16.3833 71.8418 19.4693 75.0176 23.5661C77.2093 26.3967 78.7205 29.5724 79.5831 33.0505C79.7508 33.7293 79.9167 34.4049 80.0728 35.0857C80.7324 37.921 80.8769 40.7757 80.4985 43.6667C80.0256 47.2804 79.148 50.7907 77.701 54.1258C76.26 57.4407 74.6861 60.6961 73.1645 63.9784C72.8729 64.6085 72.5427 65.2214 72.2797 65.8658C71.5294 67.7062 71.2788 69.6157 71.5513 71.5987C71.8548 73.827 72.4486 75.954 73.4652 77.9761C74.3012 79.6389 74.9884 81.3692 75.7671 83.0586C76.9232 85.5507 78.2324 87.9604 79.7014 90.2841C81.1931 92.642 82.6963 94.998 83.9503 97.4923C84.3486 98.2794 84.7246 99.0954 84.9473 99.939C85.1061 100.547 85.0433 101.227 84.9792 101.866C84.9135 102.509 84.7415 103.143 84.5892 103.774C84.2718 105.098 83.5512 106.158 82.3929 106.857C81.28 107.524 80.1266 108.115 78.989 108.735C78.055 109.242 77.1228 109.752 76.1768 110.245C74.908 110.91 73.6337 111.558 72.356 112.208C71.6658 112.558 71.049 112.404 70.3918 112.026C69.4779 111.5 68.7859 110.761 68.1581 109.954C64.5553 105.313 62.9256 102.941 59.5575 96.7757C57.7826 93.3913 56.0538 89.8425 54.5893 86.16C53.9672 84.5976 53.4133 83.0449 53.0669 81.3932C52.5083 78.7064 52.7639 76.1265 53.8145 73.6175C54.175 72.7559 54.4606 71.8881 54.605 70.9611C54.8103 69.6548 55.3795 68.4781 56.0621 67.3713C57.2708 65.3983 58.4521 63.3979 59.7912 61.511C62.5712 57.5981 64.2642 53.1969 65.6528 48.6594C66.2772 46.6163 66.5457 44.4901 66.583 42.3404C66.5962 41.7164 66.5219 41.1564 65.9741 40.7244C65.69 40.5012 65.477 40.1679 65.2796 39.8558C64.3969 38.442 63.0641 37.5746 61.5787 37.0176C59.4924 36.2346 57.338 35.653 55.0922 35.5347C53.0591 35.4287 51.1376 35.8035 49.3475 36.8132C45.8408 38.7974 43.1057 41.5748 41.0519 45.0167C40.2175 46.4038 39.5318 47.8798 38.7921 49.3258C37.6436 51.5748 37.1357 54.0453 36.4249 56.4434C36.0433 57.7346 35.6418 59.0198 35.2786 60.3138C34.9813 61.3865 34.6958 62.4655 34.4653 63.5529C34.0792 65.3748 33.597 65.9554 31.3549 65.8985C30.7624 65.8835 30.1562 65.7492 29.5835 65.5756C27.8536 65.0487 26.1387 64.4715 24.4164 63.9194C23.4445 63.6057 22.4817 63.2618 21.4984 63.005C20.5402 62.7558 19.8289 62.2934 19.4286 61.3384C19.0907 60.523 18.666 59.7417 18.2351 58.9721C17.6743 57.9767 17.4157 56.8946 17.312 55.78C17.1192 53.695 17.0758 51.614 17.4253 49.5288ZM26.5798 60.0171C26.8147 61.0865 27.0289 62.0783 27.2405 63.042C27.4093 63.137 27.5235 63.2319 27.6488 63.2617C28.5542 63.4675 29.4608 63.6599 30.3689 63.8473C30.4957 63.8721 30.6357 63.8432 30.9174 63.8353C30.6053 62.5834 30.3635 61.4544 29.7702 60.5314C28.8151 60.327 27.9567 60.1382 27.0973 59.971C26.9389 59.9422 26.7633 59.9987 26.5798 60.0171ZM23.7457 58.9773C23.7546 60.1345 23.9794 61.2009 24.2415 62.2895C24.8535 62.4503 25.3972 62.7028 26.1365 62.6937C26.0133 61.5896 25.8924 60.5602 25.5268 59.5527C24.9568 59.3059 24.4214 59.0532 23.7457 58.9773ZM67.9889 103.842C67.3593 102.875 66.8134 101.829 65.981 100.9C65.4294 101.382 65.0897 101.907 64.8424 102.628C65.1387 103.077 65.4404 103.591 65.7955 104.063C66.1644 104.553 66.3519 105.23 67.1355 105.467C67.3795 104.905 67.8696 104.519 67.9889 103.842Z" fill="black"/>
<path id="Vector_15" d="M15.3658 60.4062C13.9309 56.5599 13.7571 52.635 14.5497 48.6465C14.6425 48.1782 14.7076 47.6742 15.1542 47.1211C15.1905 47.4777 15.2275 47.6479 15.2195 47.8128C15.1551 49.0137 15.1041 50.2158 15.0116 51.4191C14.7997 54.1741 15.0569 56.8709 15.9799 59.4926C16.1202 59.8862 16.2179 60.2942 16.2824 60.7032C16.2999 60.8374 16.1426 60.9981 16.066 61.145C15.9175 61.0643 15.7334 61.0113 15.6235 60.8929C15.4982 60.7617 15.4276 60.5758 15.3658 60.4062Z" fill="black"/>
<path id="Vector_16" d="M13.2565 59.6821C13.3144 60.0396 13.3344 60.405 13.3892 60.9755C13.1083 60.7506 12.9435 60.6787 12.8682 60.5544C12.6789 60.2337 12.4694 59.907 12.3769 59.5554C11.6421 56.7521 11.1552 53.9253 11.7939 51.0337C11.9906 50.1334 12.1805 49.2284 12.5816 48.3956C12.6781 48.4029 12.773 48.4152 12.8694 48.4225C12.8778 48.6335 12.9128 48.847 12.8914 49.0571C12.7985 49.8846 12.694 50.7141 12.5846 51.542C12.3711 53.1611 12.3863 54.7755 12.7 56.3899C12.9091 57.4816 13.0821 58.5843 13.2565 59.6821Z" fill="black"/>
</g>
<defs>
<clipPath id="clip0_30_648">
<rect width="77.406" height="123.502" fill="white" transform="translate(0 36.6796) rotate(-28.2851)"/>
</clipPath>
</defs>
</svg>
