<svg width="196" height="194" viewBox="0 0 196 194" fill="none" xmlns="http://www.w3.org/2000/svg">
<g id="Objects" clip-path="url(#clip0_1_91)">
<g id="think">
<path id="Vector" d="M181.402 103.003C180.351 105.279 179.311 107.56 178.194 109.806C177.344 111.517 176.36 113.161 175.469 114.86C175.08 115.592 174.738 116.366 174.743 117.488C175.817 117.044 176.197 116.347 176.577 115.65C177.627 113.745 178.638 111.808 179.729 109.928C181.809 106.352 183.018 102.445 184.145 98.5136C184.215 98.2539 184.31 97.8526 183.745 97.7972C182.966 99.5269 182.202 101.269 181.402 103.003ZM173.435 114.448C174.854 113.106 175.635 111.503 176.431 109.927C178.945 104.944 180.139 101.878 180.356 100.028C179.761 100.144 179.489 100.585 179.259 101.038C178.409 102.676 177.567 104.311 176.753 105.972C175.83 107.861 174.918 109.769 174.042 111.687C173.675 112.502 173.298 113.34 173.43 114.445L173.435 114.448ZM74.6838 7.82877C74.1601 9.24256 73.8672 10.747 73.5492 12.2335C73.4043 12.9235 73.2714 13.6454 73.5807 14.7981C74.441 12.8866 75.1647 11.3376 75.8444 9.76878C77.4866 5.94362 79.0241 2.07135 80.2132 -1.92462C80.4177 -2.6143 80.5315 -3.33814 80.6348 -4.05345C80.6563 -4.18952 80.4759 -4.43632 80.3412 -4.49032C80.1986 -4.54129 79.8983 -4.47769 79.8193 -4.36091C79.4573 -3.82163 79.0739 -3.27877 78.8251 -2.68191C77.4181 0.811912 76.0002 4.30078 74.6893 7.83125L74.6838 7.82877ZM73.2207 7.75318C74.5954 4.33097 75.9095 0.881476 77.2482 -2.5636C77.6245 -3.54689 78.0064 -4.5277 78.3686 -5.52393C78.4736 -5.80129 78.54 -6.096 78.648 -6.49786C78.0484 -6.54914 77.7027 -6.34039 77.4854 -6.03412C76.8796 -5.17397 76.2353 -4.33118 75.7543 -3.395C73.9375 0.126335 72.4842 3.81131 71.2202 7.56159C70.9279 8.41708 70.8609 9.36072 70.7707 10.2675C70.7412 10.539 70.9588 10.8357 71.1037 11.2056C72.2474 10.21 72.7347 8.96535 73.2207 7.75318ZM186.237 106.007C185.629 107.403 184.968 108.768 184.33 110.157C182.439 114.314 180.373 118.372 178.007 122.276C177.254 123.507 176.291 124.617 175.355 125.726C174.49 126.748 173.323 127.223 171.986 126.985C170.559 126.74 169.111 126.499 167.734 126.039C165.487 125.292 163.25 124.464 161.064 123.52C157.31 121.883 153.614 120.101 149.877 118.425C143.724 115.669 137.592 112.869 131.381 110.226C127.923 108.756 124.355 107.514 120.798 106.291C119.503 105.84 118.095 105.703 116.727 105.505C115.845 105.373 114.995 105.613 114.302 106.182C113.538 106.805 112.786 107.461 112.117 108.18C110.32 110.113 108.562 112.091 106.781 114.046C106.494 114.36 106.142 114.626 105.712 115.022C105.358 113.895 105.467 112.904 105.454 111.931C105.43 108.893 105.42 105.854 105.404 102.813C105.404 102.416 105.388 102.025 105.377 101.622C105.328 100.407 104.835 99.4703 103.678 98.9361C103.259 98.7477 102.865 98.4907 102.444 98.3078C99.268 97.0041 96.084 95.7035 92.8981 94.4219C88.5441 92.6742 84.1752 90.9595 79.8212 89.2117C74.6041 87.1152 69.3949 85.0157 64.2055 82.8721C57.5451 80.1259 50.9168 77.3082 44.6492 73.7187C43.0961 72.8276 41.5893 71.8777 40.3849 70.5208C39.9541 70.0355 39.5482 69.495 39.2436 68.9207C38.6934 67.8913 38.6144 66.8157 38.9811 65.6625C40.152 62.0161 41.372 58.3784 42.9274 54.8786C45.5633 48.9635 48.2842 43.08 50.9477 37.1773C52.2766 34.2247 53.5615 31.2523 54.8795 28.2947C57.6735 22.0136 60.5006 15.7473 63.2725 9.45623C65.9627 3.34694 68.5868 -2.7921 71.2769 -8.90139C72.1579 -10.9029 73.1937 -12.8216 74.0888 -14.8102C74.602 -15.9504 75.4435 -16.3335 76.6227 -16.2599C78.6284 -16.1388 80.5361 -15.6379 82.3974 -14.9458C87.1034 -13.1854 91.7946 -11.3919 96.4975 -9.63943C100.833 -8.0261 105.182 -6.44583 109.522 -4.84352C110.453 -4.49749 111.358 -4.10988 112.287 -3.75834C117.598 -1.73866 122.905 0.30553 128.231 2.27866C132.392 3.82063 136.447 5.58598 140.355 7.67633C141.572 8.32977 142.827 8.94107 144.086 9.51436C158.418 16.0118 172.763 22.4681 187.08 28.9986C190.86 30.7264 194.599 32.5749 198.272 34.5262C201.185 36.0758 203.952 37.8909 206.417 40.1265C207.45 41.0686 208.355 42.1052 209.163 43.2375C210.258 44.7638 210.703 46.395 210.272 48.2809C209.592 51.2476 208.721 54.1545 207.774 57.0402C206.595 60.6302 205.05 64.062 203.354 67.4325C202.917 68.3155 202.604 69.261 202.214 70.1719C200.9 73.2834 199.565 76.366 197.906 79.3158C197.006 80.918 196.389 82.6871 195.655 84.3771C194.965 85.9545 194.26 87.5189 193.567 89.0883C192.424 91.6873 191.281 94.2862 190.148 96.8901C188.839 99.9176 187.549 102.961 186.231 105.991L186.237 106.007ZM168.313 67.6918C170.877 64.3212 171.189 60.3744 168.513 57.1362C168.137 56.6756 167.835 56.1553 167.444 55.7143C164.958 52.8927 161.969 51.13 158.062 51.5973C156.765 51.7556 155.496 52.1913 154.229 52.5484C153.221 52.8301 152.574 53.6189 151.99 54.416C151.449 55.1464 151.468 56.0027 151.966 56.6178C152.496 57.2803 153.179 57.6472 154.054 57.4115C154.559 57.2747 155.05 57.0519 155.555 56.9015C158.317 56.0779 160.985 55.9936 163.57 57.5809C165.148 58.5494 166.059 59.8804 166.479 61.6262C166.634 62.2526 166.53 62.8219 166.216 63.343C165.19 65.0341 163.876 66.3638 161.853 66.8247C160.428 67.1505 158.994 67.3062 157.531 67.1117C156.552 66.9758 155.561 66.881 154.587 66.7341C151.119 66.2129 147.914 66.9302 144.833 68.5509C142.056 70.0105 139.668 71.9761 137.289 73.9792C136.256 74.8459 135.421 75.8344 134.855 77.2823C135.321 77.9825 135.759 78.6433 136.2 79.2986C136.726 80.0721 137.443 80.216 138.284 79.8924C138.652 79.753 139.032 79.5996 139.345 79.376C141.601 77.7619 143.878 76.1766 146.072 74.4812C147.275 73.5453 148.568 73.0141 150.069 72.9746C150.853 72.9562 151.652 72.9913 152.438 73.0538C153.627 73.1514 154.795 73.3661 155.979 73.4152C160.573 73.6147 164.594 72.3775 167.561 68.612C167.808 68.2991 168.083 68.0121 168.318 67.6943L168.313 67.6918ZM132.526 85.1506C133.307 84.6078 133.845 83.8829 134.207 83.0056C134.777 81.6196 134.106 80.2113 132.646 80.0112C131.89 79.9095 131.053 80.0031 130.321 80.2167C129.207 80.5433 128.214 82.1763 128.288 83.3359C128.329 84.0102 128.504 84.6655 129.073 85.0803C129.708 85.5384 130.342 86.0426 131.248 85.9867C131.662 85.7157 132.099 85.4356 132.528 85.1451L132.526 85.1506ZM138.819 53.8006C139.867 52.5764 140.717 51.2764 141.06 49.6753C141.256 48.7697 141.558 47.8922 141.716 46.9827C142.357 43.3497 141.044 39.5719 137.347 37.9083C136.807 37.6653 136.297 37.3562 135.75 37.1162C132.296 35.6346 128.873 35.3063 125.5 37.3391C124.244 38.0986 123.195 39.0769 122.195 40.1505C121.47 40.9371 121.249 41.8843 121.104 42.8527C120.992 43.617 121.236 44.2966 121.979 44.6908C122.726 45.093 123.5 45.1831 124.19 44.5926C124.634 44.2095 125.024 43.7556 125.459 43.3486C127.606 41.3009 130.032 40.061 133.128 40.4081C134.812 40.5963 136.12 41.3109 137.195 42.5893C137.641 43.1281 137.876 43.7107 137.815 44.4053C137.638 46.4458 136.99 48.254 135.298 49.5856C134.252 50.4069 133.157 51.1193 131.893 51.571C130.649 52.011 129.416 52.483 128.174 52.931C125.469 53.8929 123.392 55.6674 121.638 57.8857C119.487 60.6203 118.125 63.7635 116.758 66.9177C116.225 68.1616 115.94 69.4115 116.172 70.9135C116.717 71.2319 117.31 71.6377 117.959 71.9628C119.201 72.5881 119.841 72.4323 120.692 71.3512C120.815 71.1948 120.913 71.0204 121.004 70.8491C122.195 68.57 123.529 66.3418 124.531 63.9838C125.483 61.7361 127.079 60.3543 129.244 59.4739C130.287 59.0556 131.339 58.6613 132.403 58.2989C134.971 57.421 137.06 55.8704 138.817 53.8197L138.819 53.8006ZM117.31 79.3489C117.412 79.1825 117.546 79.031 117.826 78.6735C117.893 78.0544 118.086 77.2137 118.079 76.3758C118.071 74.862 116.873 73.9916 115.403 74.3299C113.482 74.7705 112.309 76.5676 112.664 78.5161C112.866 79.5678 113.657 80.3278 114.809 80.535C116.272 80.8026 116.532 80.6811 117.308 79.3544L117.31 79.3489ZM97.5576 72.472C97.6496 71.9437 97.767 71.3739 97.8433 70.7921C97.9696 69.7758 97.7171 68.8208 97.2588 67.9256C96.8176 67.0513 95.8418 66.6585 94.9064 66.9264C92.637 67.5677 91.7465 70.9296 93.407 72.5978C94.0016 73.1901 94.6962 73.516 95.5551 73.3593C96.269 73.2302 96.9965 73.1005 97.5576 72.472ZM95.9381 64.1779C97.1724 64.2763 97.4572 64.0998 97.9352 63.0231C98.069 62.7257 98.1914 62.4097 98.2377 62.0861C98.5962 59.4056 99.0658 56.7286 99.2318 54.0343C99.3565 52.05 100.115 50.4834 101.454 49.1256C101.917 48.6579 102.416 48.2266 102.917 47.7898C103.807 47.0046 104.773 46.2866 105.589 45.4287C108.605 42.2749 110.347 38.6404 109.65 34.1399C109.599 33.8121 109.556 33.4813 109.537 33.1549C109.444 31.6554 108.907 30.3011 108.111 29.0816C107.084 27.4931 105.723 26.2642 103.804 25.8179C101.596 25.3076 99.3896 25.1162 97.1282 25.4895C92.7208 26.2152 90.2471 29.0766 88.7203 33.0133C88.3999 33.8429 88.4566 34.7031 88.6237 35.5534C88.8068 36.5301 89.421 37.1378 90.3217 37.2119C91.1929 37.2927 91.8741 36.9567 92.263 36.1514C92.4978 35.6741 92.6804 35.18 92.9261 34.7076C94.2306 32.148 95.9899 30.1378 98.9383 29.3715C100.284 29.0165 101.562 29.0753 102.824 29.5106C103.77 29.8371 104.622 30.3864 104.901 31.4592C105.444 33.5055 105.468 35.4837 104.228 37.3566C103.451 38.5238 102.594 39.5889 101.514 40.4873C100.499 41.3289 99.4785 42.1681 98.4868 43.0467C96.5498 44.7452 95.2983 46.8781 94.4834 49.3068C93.2816 52.8599 93.0232 56.5394 92.8929 60.2435C92.8504 61.4566 93.0486 62.6057 93.7542 63.864C94.5161 63.9816 95.2195 64.126 95.9412 64.1859L95.9381 64.1779Z" fill="#FBBC08"/>
<path id="Vector_2" d="M192.814 98.547C191.838 100.863 190.944 103.217 189.896 105.501C187.508 110.66 185.073 115.791 182.404 120.823C181.06 123.352 179.446 125.673 177.539 127.789C176.042 129.453 174.123 130.272 171.857 130.008C169.621 129.736 167.441 129.179 165.32 128.43C161.076 126.924 156.977 125.079 152.926 123.116C150.609 121.994 148.291 120.845 145.934 119.81C140.002 117.213 134.046 114.638 128.084 112.121C125.705 111.122 123.286 110.213 120.851 109.382C119.617 108.959 118.283 108.802 116.99 108.525C116.349 108.389 115.824 108.629 115.377 109.077C115.052 109.401 114.705 109.716 114.4 110.055C112.312 112.355 110.212 114.636 108.152 116.961C107.283 117.948 106.524 119.031 105.71 120.075C105.25 120.657 104.771 121.176 103.906 121.052C103.122 120.938 102.681 120.594 102.614 119.801C102.525 118.748 102.484 117.69 102.477 116.633C102.464 112.142 102.478 107.651 102.468 103.155C102.466 102.63 102.385 102.117 102.345 101.589C100.997 100.743 99.5673 100.239 98.1574 99.6774C94.4038 98.1999 90.6384 96.7635 86.9022 95.2474C78.3829 91.8037 69.8809 88.3215 61.374 84.8503C58.7373 83.7761 56.0789 82.765 53.5047 81.5667C49.365 79.6371 45.3237 77.5333 41.395 75.2085C39.9044 74.3256 38.6317 73.15 37.5653 71.7955C36.1519 70.0199 35.5563 67.9434 35.8099 65.6727C36.1054 62.9703 36.6055 60.3138 37.3808 57.7082C38.695 53.3313 40.3612 49.0996 42.2627 44.934C47.0628 34.4019 51.7612 23.8307 56.5699 13.309C58.6821 8.67521 60.8879 4.08355 63.1438 -0.472297C64.4628 -3.13789 65.9862 -5.69824 67.3799 -8.32361C67.8446 -9.19424 68.1796 -10.1299 68.5807 -11.0358C69.3667 -12.782 70.053 -14.5863 70.9607 -16.2645C72.1599 -18.4872 74.0842 -19.5687 76.6689 -19.4387C79.0046 -19.3149 81.2359 -18.7677 83.4181 -17.9643C86.5776 -16.8006 89.7549 -15.6619 92.9174 -14.4902C95.0231 -13.7081 97.1114 -12.8874 99.2151 -12.0862C104.588 -10.0258 109.958 -7.95984 115.329 -5.92639C119.847 -4.21775 124.365 -2.54161 128.894 -0.874002C133.618 0.861375 138.223 2.86116 142.622 5.30466C143.487 5.78042 144.383 6.20357 145.29 6.61818C158.537 12.6271 171.802 18.5975 185.024 24.6481C189.895 26.8804 194.714 29.2148 199.472 31.668C202.637 33.3046 205.611 35.2925 208.298 37.6678C209.648 38.8647 210.839 40.1761 211.835 41.6578C212.241 42.2577 212.586 42.9034 212.862 43.5708C213.558 45.1891 213.717 46.8373 213.346 48.6045C212.642 51.9777 211.607 55.2482 210.529 58.5124C209.356 62.0318 207.866 65.4155 206.148 68.703C205.812 69.3466 205.589 70.0479 205.324 70.7238C204.024 73.9807 202.635 77.1845 200.913 80.2586C200.104 81.6894 199.499 83.239 198.822 84.7428C197.845 86.9132 196.868 89.0836 195.922 91.2608C194.863 93.686 193.84 96.1205 192.812 98.5525L192.814 98.547ZM184.33 110.157C184.965 108.773 185.626 107.408 186.237 106.007C187.552 102.982 188.842 99.9391 190.154 96.906C191.287 94.3021 192.43 91.7032 193.573 89.1042C194.261 87.5324 194.965 85.9679 195.661 84.393C196.403 82.7 197.015 80.9284 197.912 79.3317C199.571 76.3819 200.906 73.2993 202.22 70.1878C202.605 69.2745 202.923 68.3314 203.36 67.4484C205.051 64.0755 206.595 60.6437 207.78 57.0562C208.727 54.1705 209.598 51.2636 210.278 48.2969C210.715 46.4134 210.267 44.7743 209.169 43.2535C208.361 42.1211 207.456 41.0845 206.423 40.1425C203.96 37.9013 201.193 36.0862 198.278 34.5421C194.605 32.5909 190.866 30.7424 187.086 29.0145C172.769 22.4841 158.424 16.0277 144.092 9.53029C142.83 8.96251 141.578 8.3457 140.361 7.69226C136.448 5.59943 132.393 3.83409 128.237 2.29459C122.905 0.318981 117.604 -1.72273 112.293 -3.74241C111.364 -4.09394 110.462 -4.48707 109.528 -4.82759C105.188 -6.4299 100.839 -8.01017 96.5035 -9.6235C91.8005 -11.3759 87.1119 -13.175 82.4034 -14.9299C80.5421 -15.6219 78.6344 -16.1228 76.6287 -16.2439C75.4495 -16.3176 74.6135 -15.932 74.0948 -14.7942C73.1997 -12.8056 72.1694 -10.8845 71.2829 -8.88546C68.5927 -2.77617 65.9687 3.36287 63.2785 9.47216C60.5065 15.7632 57.6795 22.0295 54.8855 28.3107C53.5675 31.2682 52.2881 34.2431 50.9537 37.1932C48.2957 43.0984 45.5692 48.9794 42.9334 54.8945C41.3755 58.3999 40.158 62.032 38.9871 65.6784C38.6204 66.8317 38.7018 67.9017 39.2496 68.9366C39.5542 69.5109 39.9601 70.0514 40.3909 70.5367C41.5898 71.8912 43.1021 72.8435 44.6552 73.7347C50.9228 77.3241 57.5535 80.1364 64.2115 82.888C69.4063 85.0341 74.618 87.1281 79.8272 89.2277C84.1812 90.9754 88.5476 92.6956 92.9041 94.4378C96.0925 95.7139 99.274 97.02 102.45 98.3237C102.874 98.5011 103.268 98.7581 103.684 98.9521C104.836 99.4838 105.331 100.415 105.383 101.638C105.394 102.04 105.41 102.432 105.41 102.829C105.426 105.87 105.436 108.909 105.46 111.947C105.467 112.918 105.364 113.911 105.718 115.038C106.151 114.65 106.503 114.384 106.787 114.062C108.573 112.11 110.323 110.135 112.123 108.196C112.797 107.479 113.549 106.824 114.308 106.198C115.001 105.629 115.851 105.389 116.733 105.521C118.098 105.725 119.507 105.862 120.804 106.307C124.361 107.53 127.923 108.769 131.387 110.242C137.592 112.882 143.727 115.677 149.883 118.441C153.618 120.122 157.316 121.899 161.07 123.536C163.248 124.483 165.485 125.311 167.74 126.055C169.113 126.507 170.567 126.751 171.992 127.001C173.329 127.238 174.499 126.758 175.36 125.742C176.302 124.635 177.266 123.525 178.013 122.292C180.382 118.396 182.45 114.332 184.336 110.173L184.33 110.157Z" fill="black"/>
<path id="Vector_3" d="M179.727 109.933C178.635 111.814 177.624 113.75 176.575 115.656C176.192 116.345 175.815 117.049 174.741 117.493C174.738 116.366 175.077 115.598 175.466 114.865C176.357 113.166 177.342 111.523 178.191 109.812C179.308 107.565 180.348 105.284 181.399 103.008C182.202 101.283 182.961 99.5378 183.742 97.8026C184.302 97.8556 184.21 98.2649 184.142 98.5191C183.007 102.453 181.801 106.355 179.727 109.933Z" fill="black"/>
<path id="Vector_4" d="M176.43 109.927C175.635 111.503 174.848 113.103 173.435 114.448C173.303 113.342 173.675 112.502 174.047 111.689C174.924 109.772 175.835 107.864 176.759 105.974C177.573 104.313 178.414 102.678 179.264 101.04C179.495 100.588 179.766 100.147 180.361 100.03C180.147 101.875 178.95 104.947 176.436 109.929L176.43 109.927Z" fill="black"/>
<path id="Vector_5" d="M168.513 57.1361C171.189 60.3744 170.882 64.3236 168.313 67.6918C168.077 68.0096 167.802 68.2966 167.555 68.6095C164.589 72.375 160.573 73.6147 155.973 73.4127C154.787 73.3691 153.613 73.152 152.433 73.0513C151.646 72.9888 150.847 72.9537 150.064 72.9721C148.562 73.0116 147.27 73.5429 146.067 74.4787C143.881 76.1711 141.596 77.7594 139.339 79.3735C139.026 79.5971 138.643 79.7425 138.279 79.8899C137.443 80.2159 136.726 80.0721 136.194 79.2961C135.759 78.6433 135.319 77.988 134.849 77.2798C135.415 75.8319 136.251 74.8434 137.283 73.9767C139.66 71.9791 142.051 70.008 144.828 68.5484C147.906 66.9332 151.119 66.2129 154.582 66.7316C155.561 66.8809 156.544 66.9788 157.525 67.1092C158.988 67.3037 160.417 67.1455 161.848 66.8222C163.871 66.3613 165.184 65.0316 166.211 63.3405C166.525 62.8194 166.629 62.2501 166.473 61.6237C166.056 59.8724 165.137 58.5445 163.564 57.5784C160.98 55.9911 158.306 56.0729 155.549 56.899C155.045 57.0494 154.561 57.2691 154.048 57.409C153.173 57.6447 152.496 57.2803 151.961 56.6153C151.465 55.9947 151.444 55.1439 151.985 54.4135C152.569 53.6164 153.215 52.8276 154.223 52.5459C155.49 52.1887 156.759 51.7531 158.056 51.5948C161.963 51.1275 164.944 52.8933 167.438 55.7118C167.829 56.1528 168.137 56.6756 168.507 57.1337L168.513 57.1361Z" fill="black"/>
<path id="Vector_6" d="M111.231 162.149C111.085 162.56 110.729 162.718 110.314 162.802C109.837 162.906 109.505 162.67 109.339 162.318C108.493 160.519 107.689 158.713 106.88 156.905C105.696 154.252 104.597 151.558 103.073 149.07C102.911 148.812 102.704 148.579 102.399 148.184C102.097 148.664 101.841 148.953 101.72 149.296C100.962 151.406 100.232 153.528 99.4964 155.648C99.3845 155.955 99.3308 156.296 99.1859 156.588C98.9327 157.077 98.538 157.409 97.9568 157.479C97.3621 157.549 96.851 157.213 96.8653 156.637C96.8712 156.05 96.9084 155.437 97.0778 154.884C97.7448 152.74 98.3623 150.573 99.1995 148.492C101.081 143.841 102.93 139.175 104.542 134.415C104.646 134.111 104.768 133.795 104.922 133.513C105.017 133.344 105.197 133.239 105.52 132.934C106.014 133.309 106.413 133.614 106.912 133.991C106.702 136.99 105.283 139.657 104.525 142.695C104.913 142.598 105.17 142.587 105.363 142.482C107.31 141.365 109.245 140.215 111.19 139.103C111.99 138.649 112.813 138.204 113.676 137.877C114.139 137.701 114.713 137.721 115.214 137.801C115.761 137.881 116.137 138.282 116.361 138.947C116.25 139.811 115.535 140.297 114.795 140.733C112.802 141.909 110.802 143.056 108.796 144.2C107.594 144.884 106.362 145.502 105.188 146.418C106.078 148.62 106.877 150.789 107.814 152.887C108.653 154.748 109.637 156.549 110.587 158.368C111.048 159.258 111.426 160.17 111.392 161.188C111.378 161.513 111.327 161.847 111.217 162.149L111.231 162.149Z" fill="black"/>
<path id="Vector_7" d="M134.199 83.0086C133.837 83.8858 133.304 84.6132 132.518 85.1536C132.086 85.4496 131.651 85.7242 131.238 85.9952C130.34 86.048 129.697 85.5469 129.062 85.0888C128.491 84.666 128.313 84.0162 128.277 83.3444C128.203 82.1848 129.191 80.5493 130.311 80.2252C131.043 80.0116 131.88 79.918 132.636 80.0197C134.096 80.2198 134.767 81.6281 134.196 83.0141L134.199 83.0086Z" fill="black"/>
<path id="Vector_8" d="M141.052 49.6782C140.712 51.2738 139.865 52.5818 138.811 53.8036C137.048 55.8519 134.964 57.4049 132.396 58.2828C131.332 58.6452 130.281 59.0395 129.238 59.4578C127.075 60.3327 125.479 61.7145 124.525 63.9678C123.526 66.3337 122.189 68.5539 120.998 70.8331C120.907 71.0044 120.806 71.1842 120.685 71.3352C119.834 72.4162 119.195 72.572 117.952 71.9467C117.309 71.6241 116.714 71.2238 116.166 70.8974C115.932 69.4009 116.216 68.151 116.752 66.9016C118.113 63.7449 119.475 60.6018 121.632 57.8696C123.386 55.6513 125.457 53.8744 128.168 52.915C129.413 52.4749 130.64 52.0004 131.887 51.5549C133.148 51.1088 134.249 50.3988 135.292 49.5695C136.981 48.2434 137.63 46.4352 137.809 44.3893C137.87 43.6946 137.635 43.112 137.188 42.5733C136.112 41.3004 134.804 40.5858 133.122 40.392C130.031 40.0474 127.6 41.2848 125.453 43.3325C125.018 43.7396 124.628 44.1935 124.184 44.5766C123.486 45.1701 122.72 45.0769 121.973 44.6747C121.235 44.283 120.991 43.6034 121.098 42.8366C121.24 41.8602 121.464 40.921 122.189 40.1344C123.186 39.0663 124.238 38.0825 125.494 37.323C128.867 35.2902 132.292 35.6131 135.743 37.1002C136.289 37.3456 136.801 37.6492 137.341 37.8922C141.037 39.5559 142.354 43.3416 141.71 46.9666C141.552 47.8761 141.255 48.7561 141.054 49.6592L141.052 49.6782Z" fill="black"/>
<path id="Vector_9" d="M102.181 134.876C101.358 136.897 100.454 138.875 99.5568 140.869C97.7394 144.907 95.8945 148.933 94.055 152.96C93.7302 153.682 93.4305 154.422 93.0366 155.105C92.3043 156.379 91.1805 156.536 90.0778 155.615C89.4173 155.066 89.0505 154.424 89.1153 153.559C89.262 151.585 89.3351 149.597 89.5823 147.635C89.9544 144.689 90.4626 141.764 90.9107 138.826C90.9385 138.646 90.9118 138.456 90.9143 137.92C90.5127 138.548 90.2284 138.87 90.0653 139.247C88.1719 143.542 86.3085 147.844 84.426 152.144C84.1806 152.689 83.9987 153.27 83.6781 153.762C83.4847 154.059 83.1076 154.293 82.7611 154.415C82.2044 154.622 81.6343 154.167 81.7621 153.588C81.9963 152.568 82.246 151.527 82.6584 150.567C84.4642 146.378 86.3172 142.217 88.1726 138.051C89.3294 135.451 90.5222 132.875 91.6931 130.288C91.8294 129.985 91.9438 129.672 92.1187 129.387C92.4432 128.857 92.8688 128.485 93.569 128.549C94.2019 129.085 94.152 129.785 94.1527 130.534C94.1555 133.722 93.5955 136.835 93.1312 139.971C92.8156 142.115 92.5871 144.271 92.2878 146.746C92.7059 146.391 92.931 146.274 93.0343 146.088C93.4089 145.462 93.745 144.818 94.0811 144.175C96.1164 140.242 98.1461 136.306 100.181 132.373C100.365 132.025 100.542 131.661 100.798 131.372C101.188 130.931 101.708 130.894 102.246 131.097C102.703 131.275 102.994 131.658 102.889 132.201C102.715 133.103 102.522 134.016 102.178 134.868L102.181 134.876Z" fill="black"/>
<path id="Vector_10" d="M117.821 78.671C117.538 79.034 117.406 79.18 117.305 79.3464C116.529 80.6731 116.266 80.8 114.806 80.527C113.656 80.3142 112.858 79.5573 112.661 78.5081C112.306 76.5596 113.479 74.7625 115.4 74.3219C116.87 73.9835 118.068 74.854 118.076 76.3678C118.083 77.2057 117.896 78.0488 117.823 78.6655L117.821 78.671Z" fill="black"/>
<path id="Vector_11" d="M91.7052 123.815C91.5689 123.985 91.3556 124.326 91.0747 124.597C90.5436 125.1 89.6641 125.082 89.0844 124.589C88.5217 124.117 88.3039 122.555 88.6926 121.81C89.0868 121.066 90.2484 120.575 91.0899 120.855C91.3146 120.929 91.5344 121.148 91.6457 121.357C92.0342 122.068 92.0551 122.979 91.7027 123.82L91.7052 123.815Z" fill="black"/>
<path id="Vector_12" d="M86.1609 127.228C86.3837 126.792 86.7399 126.442 87.2219 126.46C87.5684 126.471 87.9094 126.743 88.1793 126.865C88.3731 127.906 88.0296 128.699 87.6855 129.478C86.4356 132.314 85.1441 135.124 83.9108 137.967C82.5162 141.169 81.1658 144.39 79.7957 147.596C79.5638 148.14 79.3538 148.695 79.0888 149.225C78.9464 149.512 78.7525 149.796 78.5208 150.016C78.1536 150.361 77.7055 150.444 77.2447 150.217C76.8034 150.005 76.8005 149.6 76.8275 149.201C76.8413 149.008 76.8845 148.809 76.9418 148.623C77.2443 147.686 77.4496 146.685 77.8984 145.821C80.0568 141.658 81.4641 137.178 83.5178 132.968C84.3892 131.194 85.1669 129.378 85.9887 127.581C86.0432 127.46 86.0978 127.339 86.1634 127.223L86.1609 127.228Z" fill="black"/>
<path id="Vector_13" d="M84.7046 125.327C84.3366 126.248 83.9134 127.144 83.4737 128.033C81.7861 131.473 80.1291 134.934 78.3778 138.339C76.837 141.335 75.1831 144.274 73.5787 147.235C73.3219 147.703 73.0671 148.151 72.4812 148.305C71.7695 148.488 71.0702 148.113 71.0251 147.404C70.9962 146.894 71.0331 146.341 71.1863 145.854C71.4315 145.103 71.7668 144.373 72.1111 143.666C73.1844 141.473 74.3043 139.294 75.3721 137.099C75.7412 136.337 76.2335 135.612 76.2619 134.651C75.2387 134.157 74.1496 133.971 72.9859 133.746C72.7567 134.093 72.4983 134.387 72.3421 134.735C70.9859 137.748 69.6652 140.77 68.312 143.791C68.0715 144.326 67.8015 144.867 67.4723 145.348C67.1476 145.805 66.5854 145.876 66.0411 145.658C65.5214 145.444 65.3407 144.991 65.457 144.527C65.8001 143.191 66.0874 141.816 66.6227 140.554C67.6839 138.063 68.8939 135.64 70.0481 133.179C70.2749 132.704 70.4961 132.228 70.7253 131.748C71.5173 130.15 72.3148 128.555 73.0934 126.958C73.5275 126.067 73.9286 125.161 74.3628 124.27C74.922 123.13 75.355 122.742 76.6089 122.194C77.2399 122.617 77.369 123.198 77.1026 123.893C76.5599 125.305 76.1549 126.779 75.3623 128.098C74.7874 129.052 74.2712 130.051 73.9345 131.212C74.9882 131.991 76.2258 131.905 77.3688 132.353C77.6201 132.016 77.906 131.734 78.0652 131.395C78.9911 129.5 79.8589 127.572 80.8038 125.678C81.1834 124.908 81.6683 124.199 82.1115 123.465C82.4972 122.843 83.0938 122.622 83.7931 122.599C84.541 122.571 85.0626 123.031 85.0265 123.803C84.9989 124.32 84.8798 124.85 84.6886 125.333L84.7046 125.327Z" fill="black"/>
<path id="Vector_14" d="M77.2921 118.924C78.212 119.338 78.4739 119.992 78.1428 120.625C77.834 121.208 77.2671 121.364 76.4155 121.033C75.9238 120.845 75.457 120.602 74.9772 120.373L72.9721 119.47C72.5159 120.351 72.1847 120.984 71.8701 121.624C70.8731 123.633 69.8927 125.65 68.8957 127.659C67.5737 130.316 66.2296 132.964 64.913 135.624C64.1756 137.1 63.4711 138.592 62.7447 140.073C62.445 140.68 62.0549 141.194 61.317 141.332C60.5146 141.481 59.8374 140.984 59.8394 140.17C59.8452 139.848 59.9044 139.51 60.0138 139.209C60.2345 138.586 60.4576 137.958 60.764 137.38C62.0593 134.929 63.3852 132.498 64.6915 130.052C65.0634 129.358 65.4292 128.649 65.7846 127.947C67.0086 125.537 68.2405 123.124 69.4535 120.709C69.8034 120.005 70.0981 119.276 70.4725 118.445C70.1833 118.248 69.8969 117.987 69.5609 117.836C68.8448 117.513 68.0835 117.277 67.3544 116.968C66.9914 116.818 66.6377 116.633 66.3334 116.396C66.0035 116.128 65.8663 115.417 66.0462 115.121C66.2793 114.736 66.6789 114.657 67.0786 114.711C67.5353 114.771 68.0104 114.819 68.4205 114.997C71.3874 116.28 74.3444 117.584 77.2921 118.924Z" fill="black"/>
<path id="Vector_15" d="M97.8354 70.7951C97.7591 71.3768 97.6417 71.9467 97.5496 72.475C96.9885 73.1035 96.2636 73.2277 95.5471 73.3623C94.6963 73.5159 93.9937 73.1931 93.399 72.6008C91.7386 70.9326 92.6291 67.5707 94.8985 66.9294C95.8314 66.667 96.8072 67.0598 97.2509 67.9286C97.7091 68.8238 97.9617 69.7788 97.8354 70.7951Z" fill="black"/>
<path id="Vector_16" d="M97.9272 63.0261C97.4437 64.1003 97.1644 64.2793 95.9301 64.1808C95.211 64.1155 94.505 63.9766 93.7432 63.859C93.0321 62.5982 92.8369 61.4571 92.8819 60.2385C93.0177 56.5369 93.2706 52.8549 94.4724 49.3018C95.2928 46.8755 96.5443 44.7426 98.4758 43.0417C99.4675 42.1631 100.482 41.3214 101.503 40.4823C102.58 39.5894 103.437 38.5243 104.217 37.3516C105.457 35.4787 105.428 33.498 104.89 31.4542C104.608 30.3734 103.753 29.8296 102.813 29.5056C101.551 29.0703 100.273 29.0115 98.9273 29.3664C95.9844 30.1352 94.2195 32.143 92.9151 34.7026C92.6749 35.1774 92.4812 35.6666 92.252 36.1464C91.8606 36.9572 91.1763 37.2852 90.3106 37.2069C89.4155 37.1352 88.7958 36.5251 88.6127 35.5484C88.4511 34.7006 88.3889 33.8379 88.7093 33.0083C90.2361 29.0716 92.7098 26.2102 97.1171 25.4845C99.373 25.1087 101.587 25.2971 103.793 25.8129C105.712 26.2592 107.073 27.4881 108.1 29.0766C108.896 30.296 109.43 31.6559 109.526 33.1499C109.545 33.4763 109.588 33.8071 109.639 34.1349C110.336 38.6353 108.594 42.2699 105.578 45.4237C104.762 46.2816 103.798 46.9941 102.906 47.7848C102.405 48.2216 101.906 48.6529 101.443 49.1206C100.109 50.4809 99.3455 52.045 99.2208 54.0293C99.0548 56.7236 98.5852 59.4005 98.2266 62.0811C98.1859 62.4072 98.058 62.7206 97.9241 63.0181L97.9272 63.0261Z" fill="black"/>
<path id="Vector_17" d="M75.8413 9.76075C75.1671 11.3321 74.4379 12.8786 73.5776 14.7901C73.2738 13.6398 73.4012 12.9154 73.5461 12.2255C73.8616 10.7445 74.157 9.23452 74.6807 7.82073C75.9915 4.29027 77.4095 0.801401 78.8165 -2.69243C79.0597 -3.29176 79.4487 -3.83214 79.8107 -4.37142C79.8897 -4.4882 80.19 -4.5518 80.3326 -4.50083C80.4703 -4.43885 80.6452 -4.19452 80.6262 -4.06396C80.5149 -3.34563 80.409 -2.62482 80.2046 -1.93513C79.0155 2.06084 77.4779 5.93311 75.8357 9.75827L75.8413 9.76075Z" fill="black"/>
<path id="Vector_18" d="M73.2206 7.75317C72.7346 8.96534 72.2473 10.21 71.1036 11.2056C70.9642 10.8382 70.7412 10.539 70.7707 10.2675C70.8688 9.35769 70.9303 8.41156 71.2201 7.56158C72.4896 3.81379 73.9374 0.12633 75.7542 -3.39501C76.2382 -4.3232 76.8795 -5.17397 77.4853 -6.03412C77.6971 -6.34287 78.0483 -6.54914 78.6479 -6.49786C78.5399 -6.09601 78.4735 -5.80129 78.3686 -5.52394C78.0032 -4.53569 77.6269 -3.5524 77.2481 -2.56361C75.9119 0.875962 74.5923 4.32297 73.2206 7.75317Z" fill="black"/>
<path id="Vector_19" d="M34.4516 58.079C33.0187 62.2633 32.5435 66.5276 33.43 70.9014C33.5426 71.4754 33.6773 72.0594 33.3723 72.6044C32.9239 72.8796 32.5738 72.7154 32.3141 72.3799C31.7721 71.6854 31.5625 70.8558 31.4304 70.0014C31.1502 68.1661 31.1644 66.3242 31.3736 64.4907C31.6368 62.2574 32.2358 60.1024 33.051 58.0116C33.2446 57.5225 33.4989 57.0606 33.7752 56.6086C34.0138 56.2258 34.3165 55.8917 34.5942 55.5397C34.9687 56.5032 34.7196 57.2921 34.4516 58.079Z" fill="black"/>
<path id="Vector_20" d="M30.2702 60.5691C30.0718 62.2022 29.7789 63.8391 29.7294 65.4796C29.6816 67.1606 29.8699 68.8618 29.9648 70.7262C29.5833 70.5876 29.3013 70.5667 29.1437 70.4163C28.5045 69.7907 28.1911 69.0004 28.1388 68.1157C27.96 65.1867 28.2159 62.3075 29.154 59.5169C29.6174 58.1488 30.1323 56.7841 31.0647 55.5807C31.1186 57.3009 30.4701 58.9036 30.2678 60.5747L30.2702 60.5691Z" fill="black"/>
<path id="Vector_21" d="M55.3716 148.904C54.672 148.589 53.9496 148.31 53.2778 147.949C52.3766 147.463 52.1574 146.596 52.6213 145.639C52.7458 145.377 52.9775 145.289 53.2298 145.244C53.9413 145.12 54.6199 145.187 55.2989 145.46C57.6767 146.417 60.0787 147.306 62.4441 148.292C68.8988 150.965 75.3579 153.614 81.7481 156.431C86.1423 158.369 90.6307 160.097 95.0646 161.947C98.7889 163.504 102.496 165.1 106.21 166.679C106.505 166.805 106.802 166.925 107.073 167.087C107.484 167.338 107.668 167.739 107.676 168.22C107.686 168.787 107.321 169.246 106.772 169.244C106.263 169.24 105.747 169.18 105.251 169.076C104.88 169.002 104.525 168.835 104.167 168.687C101.437 167.571 98.6994 166.485 95.9914 165.319C90.2283 162.831 84.3518 160.61 78.5322 158.262C76.9901 157.641 75.4623 156.973 73.9394 156.294C69.434 154.28 64.8348 152.488 60.2506 150.663C58.6429 150.025 57.0159 149.446 55.3934 148.841C55.3834 148.863 55.376 148.88 55.3661 148.902L55.3716 148.904Z" fill="#FBBC09"/>
</g>
</g>
<defs>
<clipPath id="clip0_1_91">
<rect width="169.875" height="169.971" fill="white" transform="translate(69.7629 -31) rotate(24.2324)"/>
</clipPath>
</defs>
</svg>
